<svg width="12" height="13" viewBox="0 0 12 13" fill="none" xmlns="http://www.w3.org/2000/svg">
<path opacity="0.4" d="M2.87066 8.0376C2.92566 7.7926 2.82566 7.4426 2.65066 7.2676L1.43566 6.0526C1.05566 5.6726 0.905662 5.2676 1.01566 4.9176C1.13066 4.5676 1.48566 4.3276 2.01566 4.2376L3.57566 3.9776C3.80066 3.9376 4.07566 3.7376 4.18066 3.5326L5.04066 1.8076C5.29066 1.3126 5.63066 1.0376 6.00066 1.0376C6.37066 1.0376 6.71066 1.3126 6.96066 1.8076L7.82066 3.5326C7.88566 3.6626 8.02066 3.7876 8.16566 3.8726L2.78066 9.2576C2.71066 9.3276 2.59066 9.2626 2.61066 9.1626L2.87066 8.0376Z" fill="#FFD60A"/>
<path d="M9.35039 7.26761C9.17039 7.44761 9.07039 7.79261 9.13039 8.03761L9.47539 9.54261C9.62039 10.1676 9.53039 10.6376 9.22039 10.8626C9.09539 10.9526 8.94539 10.9976 8.77039 10.9976C8.51539 10.9976 8.21539 10.9026 7.88539 10.7076L6.42039 9.83761C6.19039 9.70261 5.81039 9.70261 5.58039 9.83761L4.11539 10.7076C3.56039 11.0326 3.08539 11.0876 2.78039 10.8626C2.66539 10.7776 2.58039 10.6626 2.52539 10.5126L8.60539 4.43261C8.83539 4.20261 9.16039 4.09761 9.47539 4.15261L9.98039 4.23761C10.5104 4.32761 10.8654 4.56761 10.9804 4.91761C11.0904 5.26761 10.9404 5.67261 10.5604 6.05261L9.35039 7.26761Z" fill="#FFD60A"/>
</svg>
