<svg width="81" height="21" viewBox="0 0 81 21" fill="none" xmlns="http://www.w3.org/2000/svg">
<rect y="0.0288086" width="81" height="20.8901" rx="8" fill="#FBF4D9"/>
<g clip-path="url(#clip0_840_29430)">
<path d="M1.80859 10.5129C1.80859 7.82771 1.80859 6.50459 2.23666 5.45388C2.82039 4.05293 3.94893 2.92439 5.34988 2.34066C6.40059 1.9126 7.76262 1.9126 10.4089 1.9126C13.094 1.9126 14.4171 1.9126 15.4678 2.34066C16.8688 2.92439 17.9973 4.05293 18.581 5.45388C19.0091 6.50459 19.0091 7.82771 19.0091 10.5129C19.0091 13.198 19.0091 14.5211 18.581 15.5718C17.9973 16.9728 16.8688 18.1013 15.4678 18.685C14.4171 19.1131 13.094 19.1131 10.4089 19.1131C7.7237 19.1131 6.40059 19.1131 5.34988 18.685C3.94893 18.1013 2.82039 16.9728 2.23666 15.5718C1.80859 14.5211 1.80859 13.198 1.80859 10.5129Z" fill="#0E1CF7"/>
<path d="M5.73924 10.1636H5.19443C5.07768 10.1636 4.96094 10.2803 4.96094 10.3971V10.6306C4.96094 10.7473 5.07768 10.864 5.19443 10.864H5.73924C5.85599 10.864 5.97273 10.7473 5.97273 10.6306V10.3971C5.97273 10.2803 5.85599 10.1636 5.73924 10.1636Z" fill="white"/>
<path d="M6.55859 10.3976V10.6311C6.55859 10.7478 6.67534 10.8646 6.79209 10.8646H9.98313H10.2945H10.4501C10.5669 10.8646 10.6836 10.7478 10.6836 10.6311V5.37753C10.6836 5.26079 10.5669 5.14404 10.4501 5.14404H10.2166C10.0999 5.14404 9.98313 5.26079 9.98313 5.37753V9.96953C9.98313 10.0863 9.86639 10.203 9.74964 10.203H6.75317C6.67534 10.1641 6.55859 10.2808 6.55859 10.3976Z" fill="white"/>
<path d="M12.51 11.6035H10.214C10.0972 11.6035 9.98047 11.7203 9.98047 11.837V12.0705C9.98047 12.1872 10.0972 12.304 10.214 12.304H12.51C12.6267 12.304 12.7434 12.1872 12.7434 12.0705V11.837C12.7434 11.7203 12.6656 11.6035 12.51 11.6035Z" fill="white"/>
<path d="M14.8047 15.2228H12.9757C12.8589 15.2228 12.7422 15.3395 12.7422 15.4563V15.6897C12.7422 15.8065 12.8589 15.9232 12.9757 15.9232H15.0382H15.5052C15.6219 15.9232 15.7387 15.8065 15.7387 15.6897V15.2228V13.5494C15.7387 13.4327 15.6219 13.3159 15.5052 13.3159H15.2717C15.1549 13.3159 15.0382 13.4327 15.0382 13.5494V14.9893C15.0382 15.106 14.9214 15.2228 14.8047 15.2228Z" fill="white"/>
<path d="M13.6762 14.0164H14.1431C14.2599 14.0164 14.3766 13.8996 14.3766 13.7829V13.5494C14.3766 13.4327 14.2599 13.3159 14.1431 13.3159H13.4427H12.9757C12.8589 13.3159 12.7422 13.4327 12.7422 13.5494V14.2499C12.7422 14.3666 12.8589 14.4834 12.9757 14.4834H13.2092C13.3259 14.4834 13.4427 14.3666 13.4427 14.2499C13.4427 14.0942 13.5594 14.0164 13.6762 14.0164Z" fill="white"/>
<path d="M13.9164 11.798H14.1498C14.2666 11.798 14.3833 11.6813 14.3833 11.5645V10.3971C14.3833 10.2803 14.2666 10.1636 14.1498 10.1636H13.8774H13.6829H11.6593C11.5425 10.1636 11.4258 10.2803 11.4258 10.3971V10.6306C11.4258 10.7473 11.5425 10.864 11.6593 10.864H13.4494C13.5661 10.864 13.6829 10.9808 13.6829 11.0975V11.5645C13.6829 11.6813 13.7607 11.798 13.9164 11.798Z" fill="white"/>
<path d="M15.2335 12.304H15.5059C15.6226 12.304 15.7394 12.1872 15.7394 12.0705V11.837C15.7394 11.7203 15.6226 11.6035 15.5059 11.6035H15.2335C15.1167 11.6035 15 11.7203 15 11.837V12.0705C15 12.1872 15.0778 12.304 15.2335 12.304Z" fill="white"/>
<path d="M10.8366 13.8996H10.214C10.0972 13.8996 9.98047 14.0164 9.98047 14.1331V14.211V14.6001V15.6897C9.98047 15.8065 10.0972 15.9232 10.214 15.9232H10.4475C10.5642 15.9232 10.6809 15.8065 10.6809 15.6897V14.8336C10.6809 14.7169 10.7977 14.6001 10.9144 14.6001H11.0701H11.5371C11.6538 14.6001 11.7706 14.4834 11.7706 14.3666V13.8996V13.5494C11.7706 13.4327 11.6538 13.3159 11.5371 13.3159H11.3036C11.1868 13.3159 11.0701 13.4327 11.0701 13.5494V13.7051C11.0701 13.7829 10.9533 13.8996 10.8366 13.8996Z" fill="white"/>
<path d="M7.84066 12.0704V15.2614H5.6225V12.0704H7.84066ZM8.22981 11.4478H5.19443C5.07768 11.4478 4.96094 11.5645 4.96094 11.6812V15.6895C4.96094 15.8063 5.07768 15.923 5.19443 15.923H8.22981C8.34656 15.923 8.4633 15.8063 8.4633 15.6895V11.6812C8.4633 11.5645 8.34656 11.4478 8.22981 11.4478Z" fill="white"/>
<path d="M8.96897 12.5368C9.00789 12.5368 9.0468 12.5757 9.0468 12.6146V14.1712C9.0468 14.2102 9.00789 14.2491 8.96897 14.2491H8.42416V12.4979H8.96897M8.96897 12.0698H7.99609V14.755H8.96897C9.2803 14.755 9.51379 14.5215 9.51379 14.2102V12.6536C9.51379 12.3422 9.2803 12.0698 8.96897 12.0698Z" fill="white"/>
<path d="M9.51467 12.8872H8.23047V13.432H9.51467V12.8872Z" fill="white"/>
<path d="M6.28979 13.0823H7.18484C7.37942 13.0823 7.53508 12.9266 7.53508 12.7321C7.53508 12.5375 7.37942 12.3818 7.18484 12.3818H6.28979C6.09521 12.3818 5.93955 12.5375 5.93955 12.7321C5.90064 12.9266 6.0563 13.0823 6.28979 13.0823Z" fill="white"/>
<path d="M7.33115 13.7824C7.44789 13.7824 7.56464 13.6657 7.56464 13.5489C7.56464 13.4322 7.44789 13.3154 7.33115 13.3154C7.2144 13.3154 7.09766 13.4322 7.09766 13.5489C7.09766 13.7046 7.17549 13.7824 7.33115 13.7824Z" fill="white"/>
<path d="M6.12021 13.7814C6.23696 13.7814 6.3537 13.6647 6.3537 13.5479C6.3537 13.4312 6.23696 13.3145 6.12021 13.3145C6.00346 13.3145 5.88672 13.4312 5.88672 13.5479C5.88672 13.7036 6.00346 13.7814 6.12021 13.7814Z" fill="white"/>
<path d="M6.70224 13.7819C6.81899 13.7819 6.93573 13.6652 6.93573 13.5484C6.93573 13.4317 6.81899 13.3149 6.70224 13.3149C6.5855 13.3149 6.46875 13.4317 6.46875 13.5484C6.46875 13.7041 6.5855 13.7819 6.70224 13.7819Z" fill="white"/>
<path d="M7.33115 14.404C7.44789 14.404 7.56464 14.2872 7.56464 14.1705C7.56464 14.0538 7.44789 13.937 7.33115 13.937C7.2144 13.937 7.09766 14.0538 7.09766 14.1705C7.09766 14.2872 7.17549 14.404 7.33115 14.404Z" fill="white"/>
<path d="M6.12021 14.4045C6.23696 14.4045 6.3537 14.2877 6.3537 14.171C6.3537 14.0542 6.23696 13.9375 6.12021 13.9375C6.00346 13.9375 5.88672 14.0542 5.88672 14.171C5.88672 14.2877 6.00346 14.4045 6.12021 14.4045Z" fill="white"/>
<path d="M6.70224 14.404C6.81899 14.404 6.93573 14.2872 6.93573 14.1705C6.93573 14.0538 6.81899 13.937 6.70224 13.937C6.5855 13.937 6.46875 14.0538 6.46875 14.1705C6.46875 14.2872 6.5855 14.404 6.70224 14.404Z" fill="white"/>
<path d="M7.33115 14.988C7.44789 14.988 7.56464 14.8712 7.56464 14.7545C7.56464 14.6377 7.44789 14.521 7.33115 14.521C7.2144 14.521 7.09766 14.6377 7.09766 14.7545C7.09766 14.8712 7.17549 14.988 7.33115 14.988Z" fill="white"/>
<path d="M6.12021 14.988C6.23696 14.988 6.3537 14.8712 6.3537 14.7545C6.3537 14.6377 6.23696 14.521 6.12021 14.521C6.00346 14.521 5.88672 14.6377 5.88672 14.7545C5.88672 14.8712 6.00346 14.988 6.12021 14.988Z" fill="white"/>
<path d="M6.70224 14.988C6.81899 14.988 6.93573 14.8712 6.93573 14.7545C6.93573 14.6377 6.81899 14.521 6.70224 14.521C6.5855 14.521 6.46875 14.6377 6.46875 14.7545C6.46875 14.8712 6.5855 14.988 6.70224 14.988Z" fill="white"/>
<path d="M8.61897 5.76571V8.80109H5.6225V5.76571H8.61897ZM9.04703 5.14307H5.19443C5.07768 5.14307 4.96094 5.25981 4.96094 5.37656V9.22916C4.96094 9.34591 5.07768 9.46265 5.19443 9.46265H9.04703C9.16378 9.46265 9.28052 9.34591 9.28052 9.22916V5.37656C9.28052 5.25981 9.16378 5.14307 9.04703 5.14307Z" fill="white"/>
<path d="M6.20585 6.46698H6.12802C6.01128 6.46698 5.89453 6.35024 5.89453 6.23349C5.89453 6.11675 6.01128 6 6.12802 6H6.20585C6.3226 6 6.43934 6.11675 6.43934 6.23349C6.43934 6.38915 6.3226 6.46698 6.20585 6.46698Z" fill="white"/>
<path d="M6.20585 7.12763H6.12802C6.01128 7.12763 5.89453 7.01088 5.89453 6.89414C5.89453 6.77739 6.01128 6.66064 6.12802 6.66064H6.20585C6.3226 6.66064 6.43934 6.77739 6.43934 6.89414C6.43934 7.01088 6.3226 7.12763 6.20585 7.12763Z" fill="white"/>
<path d="M6.20585 7.7497H6.12802C6.01128 7.7497 5.89453 7.63295 5.89453 7.51621C5.89453 7.39946 6.01128 7.28271 6.12802 7.28271H6.20585C6.3226 7.28271 6.43934 7.39946 6.43934 7.51621C6.43934 7.63295 6.3226 7.7497 6.20585 7.7497Z" fill="white"/>
<path d="M7.57304 6.46698H7.49521C7.37846 6.46698 7.26172 6.35024 7.26172 6.23349C7.26172 6.11675 7.37846 6 7.49521 6H7.57304C7.68979 6 7.80653 6.11675 7.80653 6.23349C7.80653 6.38915 7.68979 6.46698 7.57304 6.46698Z" fill="white"/>
<path d="M7.57304 7.12763H7.49521C7.37846 7.12763 7.26172 7.01088 7.26172 6.89414C7.26172 6.77739 7.37846 6.66064 7.49521 6.66064H7.57304C7.68979 6.66064 7.80653 6.77739 7.80653 6.89414C7.80653 7.01088 7.68979 7.12763 7.57304 7.12763Z" fill="white"/>
<path d="M7.57304 7.7497H7.49521C7.37846 7.7497 7.26172 7.63295 7.26172 7.51621C7.26172 7.39946 7.37846 7.28271 7.49521 7.28271H7.57304C7.68979 7.28271 7.80653 7.39946 7.80653 7.51621C7.80653 7.63295 7.68979 7.7497 7.57304 7.7497Z" fill="white"/>
<path d="M6.86992 6.46698H6.79209C6.67534 6.46698 6.55859 6.35024 6.55859 6.23349C6.55859 6.11675 6.67534 6 6.79209 6H6.86992C6.98666 6 7.10341 6.11675 7.10341 6.23349C7.10341 6.38915 6.98666 6.46698 6.86992 6.46698Z" fill="white"/>
<path d="M6.86992 7.12763H6.79209C6.67534 7.12763 6.55859 7.01088 6.55859 6.89414C6.55859 6.77739 6.67534 6.66064 6.79209 6.66064H6.86992C6.98666 6.66064 7.10341 6.77739 7.10341 6.89414C7.10341 7.01088 6.98666 7.12763 6.86992 7.12763Z" fill="white"/>
<path d="M6.86992 7.7497H6.79209C6.67534 7.7497 6.55859 7.63295 6.55859 7.51621C6.55859 7.39946 6.67534 7.28271 6.79209 7.28271H6.86992C6.98666 7.28271 7.10341 7.39946 7.10341 7.51621C7.10341 7.63295 6.98666 7.7497 6.86992 7.7497Z" fill="white"/>
<path d="M8.19472 8.52821C8.11689 8.52821 8.03906 8.45038 8.03906 8.37255V8.13906C8.03906 8.06123 8.11689 7.9834 8.19472 7.9834C8.27255 7.9834 8.35038 8.06123 8.35038 8.13906V8.37255C8.35038 8.4893 8.27255 8.52821 8.19472 8.52821Z" fill="white"/>
<path d="M5.89453 8.29584C5.89453 8.14018 6.01128 8.02344 6.16694 8.02344H7.52897C7.68463 8.02344 7.80138 8.14018 7.80138 8.29584C7.80138 8.4515 7.68463 8.56825 7.52897 8.56825H6.16694C6.01128 8.52934 5.89453 8.41259 5.89453 8.29584Z" fill="white"/>
<path d="M13.5625 8.29536C13.5625 8.13969 13.6792 8.02295 13.8349 8.02295H14.5354C14.691 8.02295 14.8078 8.13969 14.8078 8.29536C14.8078 8.45102 14.691 8.56776 14.5354 8.56776H13.8349C13.6792 8.52885 13.5625 8.4121 13.5625 8.29536Z" fill="white"/>
<path d="M15.0838 5.76571V8.80109H12.0484V5.76571H15.0838ZM15.5119 5.14307H11.6593C11.5425 5.14307 11.4258 5.25981 11.4258 5.37656V9.22916C11.4258 9.34591 11.5425 9.46265 11.6593 9.46265H15.5119C15.6286 9.46265 15.7454 9.34591 15.7454 9.22916V5.37656C15.7454 5.25981 15.6286 5.14307 15.5119 5.14307Z" fill="white"/>
<path d="M12.667 8.41162C12.6281 8.41162 12.5503 8.3727 12.5113 8.33379C12.4335 8.25595 12.4335 8.10029 12.5113 8.02246L12.8227 7.71114L12.4724 7.36091C12.3946 7.28307 12.3946 7.12741 12.4724 7.04958C12.5503 6.97175 12.7059 6.97175 12.7838 7.04958L13.2897 7.55548C13.3675 7.63331 13.3675 7.78897 13.2897 7.8668L12.8227 8.33379C12.7838 8.3727 12.7059 8.41162 12.667 8.41162Z" fill="white"/>
<path d="M24.1836 7.08836C24.1836 6.97162 24.2225 6.89379 24.2614 6.77704C24.3003 6.69921 24.3782 6.62138 24.4171 6.54355C24.4949 6.46572 24.5727 6.4268 24.6506 6.38789C24.7284 6.34897 24.8452 6.31006 24.9619 6.31006C25.0786 6.31006 25.1565 6.34897 25.2732 6.38789C25.351 6.4268 25.4678 6.46572 25.5067 6.54355C25.5845 6.62138 25.6235 6.69921 25.6624 6.77704C25.7013 6.85487 25.7402 6.97162 25.7402 7.08836C25.7402 7.20511 25.7013 7.28294 25.6624 7.39968C25.6235 7.47751 25.5456 7.59426 25.5067 7.63317C25.4289 7.71101 25.351 7.74992 25.2732 7.78884C25.1954 7.82775 25.0786 7.86667 24.9619 7.86667C24.8452 7.86667 24.7673 7.82775 24.6506 7.78884C24.5727 7.74992 24.456 7.71101 24.4171 7.63317C24.3393 7.55534 24.3003 7.47751 24.2614 7.39968C24.2225 7.28294 24.1836 7.16619 24.1836 7.08836ZM24.2225 8.99521C24.2225 8.87846 24.2614 8.80063 24.3003 8.7228C24.3393 8.64497 24.3782 8.56714 24.456 8.48931C24.5338 8.41148 24.6117 8.37256 24.6895 8.33365C24.7673 8.29473 24.8841 8.29473 24.9619 8.29473C25.0786 8.29473 25.1565 8.29473 25.2343 8.33365C25.3121 8.37256 25.39 8.41148 25.4678 8.48931C25.5456 8.56714 25.5845 8.64497 25.6235 8.7228C25.6624 8.80063 25.6624 8.91738 25.6624 8.99521V12.8867C25.6624 13.0035 25.6624 13.0813 25.6235 13.1591C25.5845 13.237 25.5456 13.3148 25.4678 13.3926C25.39 13.4705 25.3121 13.5094 25.2343 13.5483C25.1565 13.5872 25.0397 13.5872 24.9619 13.5872C24.8452 13.5872 24.7673 13.5872 24.6895 13.5483C24.6117 13.5094 24.5338 13.4705 24.456 13.3926C24.3782 13.3148 24.3393 13.237 24.3003 13.1591C24.2614 13.0813 24.2225 12.9646 24.2225 12.8867V8.99521Z" fill="black"/>
<path d="M26.5583 9.30657C26.5194 9.18982 26.4805 9.11199 26.4805 8.99525C26.4805 8.91742 26.4805 8.80067 26.5194 8.72284C26.5583 8.64501 26.5972 8.56718 26.675 8.48935C26.7529 8.41152 26.8307 8.37261 26.9085 8.33369C26.9864 8.29477 27.1031 8.25586 27.2199 8.25586C27.3755 8.25586 27.4923 8.29478 27.609 8.37261C27.7258 8.45044 27.8036 8.56718 27.8814 8.68393L28.8932 11.0967L29.905 8.72284C29.9439 8.6061 30.0607 8.48935 30.1774 8.41152C30.2942 8.33369 30.4109 8.29477 30.5666 8.29477C30.6833 8.29477 30.7611 8.33369 30.8779 8.37261C30.9557 8.41152 31.0335 8.45044 31.1114 8.52827C31.1892 8.6061 31.2281 8.68393 31.267 8.76176C31.306 8.83959 31.306 8.95633 31.306 9.03416C31.306 9.07308 31.306 9.15091 31.306 9.18982C31.306 9.22874 31.267 9.30657 31.267 9.34549L29.6326 13.1592C29.5937 13.2759 29.5159 13.3538 29.3991 13.4705C29.2824 13.5483 29.1656 13.5872 29.01 13.6262C28.8543 13.6262 28.6986 13.5872 28.5819 13.5094C28.4651 13.4316 28.3484 13.3148 28.3095 13.1981L26.5583 9.30657Z" fill="black"/>
<path d="M33.2127 11.6024C33.3295 11.797 33.4851 11.9527 33.6797 12.0694C33.8743 12.1861 34.0688 12.2251 34.3023 12.2251C34.458 12.2251 34.5747 12.2251 34.6526 12.1861C34.7304 12.1472 34.8082 12.1472 34.8861 12.1083C34.9639 12.0694 35.0417 12.0305 35.1196 11.9916C35.1974 11.9527 35.2752 11.9527 35.3141 11.9527C35.4309 11.9527 35.5087 11.9916 35.5865 12.0305C35.6644 12.0694 35.7422 12.1083 35.82 12.1861C35.8979 12.264 35.9368 12.3418 35.9757 12.4196C36.0146 12.4975 36.0146 12.6142 36.0146 12.692C36.0146 12.8088 35.9757 12.9255 35.8979 13.0423C35.82 13.159 35.7422 13.2369 35.5865 13.3147C35.4309 13.3925 35.2752 13.4703 35.0417 13.5093C34.8471 13.5482 34.5747 13.5871 34.3023 13.5871C33.9521 13.5871 33.6019 13.5093 33.2516 13.3925C32.9403 13.2369 32.629 13.0812 32.3955 12.8088C32.162 12.5753 31.9674 12.3029 31.8118 11.9527C31.6561 11.6413 31.6172 11.2911 31.6172 10.9019C31.6172 10.5128 31.695 10.2015 31.8118 9.85123C31.9674 9.53991 32.162 9.22859 32.3955 8.9951C32.629 8.76161 32.9403 8.56703 33.2516 8.41137C33.5629 8.25571 33.9132 8.2168 34.3023 8.2168C34.6526 8.2168 35.0028 8.29463 35.3141 8.41137C35.6255 8.56703 35.9368 8.72269 36.1703 8.95619C36.4038 9.18968 36.5983 9.46208 36.754 9.81232C36.9097 10.1236 36.9875 10.4739 36.9875 10.8241C36.9875 11.0187 36.9097 11.2133 36.7929 11.33C36.6762 11.4468 36.4816 11.5246 36.287 11.5246H33.2127V11.6024ZM35.4698 10.396C35.353 10.1626 35.1974 10.0069 35.0028 9.89015C34.8082 9.73449 34.5747 9.69557 34.3023 9.69557C34.0299 9.69557 33.7964 9.7734 33.6019 9.89015C33.4073 10.0458 33.2516 10.2015 33.1738 10.396H35.4698Z" fill="black"/>
<path d="M37.5312 10.9024C37.5312 10.5522 37.6091 10.2019 37.7258 9.89059C37.8815 9.57927 38.0371 9.30686 38.2706 9.07337C38.5041 8.83988 38.7765 8.64531 39.0879 8.52856C39.3992 8.3729 39.7494 8.33398 40.0997 8.33398C40.4499 8.33398 40.8001 8.41181 41.1114 8.52856C41.4228 8.68422 41.7341 8.83988 41.9676 9.07337C42.2011 9.30686 42.3956 9.57927 42.5513 9.89059C42.707 10.2019 42.7459 10.5522 42.7459 10.9024V12.8871C42.7459 13.0038 42.7459 13.0816 42.707 13.1595C42.6681 13.2373 42.6291 13.3151 42.5513 13.393C42.4735 13.4708 42.3956 13.5097 42.3178 13.5486C42.24 13.5875 42.1232 13.5875 42.0454 13.5875C41.9287 13.5875 41.8508 13.5875 41.773 13.5486C41.6952 13.5097 41.6173 13.4708 41.5395 13.393C41.4617 13.3151 41.4228 13.2373 41.3839 13.1595C41.3449 13.0816 41.3449 12.9649 41.3449 12.8871V10.9413C41.3449 10.7856 41.306 10.63 41.2282 10.5132C41.1504 10.3576 41.0725 10.2408 40.9558 10.163C40.839 10.0463 40.7223 9.96842 40.5666 9.92951C40.411 9.85168 40.2553 9.85168 40.0997 9.85168C39.944 9.85168 39.7883 9.89059 39.6716 9.92951C39.5159 9.96842 39.3992 10.0463 39.3213 10.163C39.2046 10.2797 39.1268 10.3965 39.0879 10.5132C39.01 10.63 39.01 10.7856 39.01 10.9413V12.926C39.01 13.0427 39.01 13.1206 38.9711 13.1984C38.9322 13.2762 38.8933 13.354 38.8155 13.4319C38.7376 13.5097 38.6598 13.5486 38.582 13.5875C38.5041 13.6265 38.3874 13.6265 38.3096 13.6265C38.1928 13.6265 38.115 13.6265 38.0371 13.5875C37.9593 13.5486 37.8815 13.5097 37.8037 13.4319C37.7258 13.354 37.6869 13.2762 37.648 13.1984C37.6091 13.1206 37.5702 13.0038 37.5702 12.926V10.9024H37.5312Z" fill="black"/>
<path d="M43.4844 10.9797C43.4844 10.6295 43.5622 10.2792 43.679 9.92898C43.8346 9.61766 44.0292 9.30633 44.2627 9.07284C44.4962 8.83935 44.7686 8.64478 45.1188 8.48912C45.4301 8.33345 45.7804 8.29454 46.1695 8.29454C46.4808 8.29454 46.7532 8.33346 46.9089 8.41129C47.1035 8.48912 47.2591 8.60586 47.3759 8.76152V7.12708C47.3759 7.01034 47.3759 6.93251 47.4148 6.81576C47.4537 6.73793 47.4926 6.6601 47.5705 6.58227C47.6483 6.50444 47.7261 6.46553 47.804 6.42661C47.8818 6.3877 47.9985 6.3877 48.0764 6.3877C48.1931 6.3877 48.2709 6.3877 48.3488 6.42661C48.4266 6.46553 48.5044 6.50444 48.5823 6.58227C48.6601 6.6601 48.699 6.73793 48.7379 6.81576C48.7768 6.89359 48.7768 7.01034 48.7768 7.12708V10.9797C48.7768 11.3299 48.699 11.6802 48.5823 12.0304C48.4266 12.3417 48.2709 12.653 47.9985 12.8865C47.765 13.12 47.4926 13.3146 47.1424 13.4703C46.8311 13.6259 46.4808 13.6648 46.0917 13.6648C45.7415 13.6648 45.3912 13.587 45.041 13.4703C44.7297 13.3146 44.4183 13.1589 44.1848 12.8865C43.9514 12.653 43.7568 12.3806 43.6011 12.0304C43.5622 11.6802 43.4844 11.3299 43.4844 10.9797ZM44.9632 10.9797C44.9632 11.1353 45.0021 11.291 45.041 11.4467C45.1188 11.6023 45.1966 11.7191 45.3134 11.8358C45.4301 11.9526 45.5469 12.0304 45.7025 12.1082C45.8582 12.1861 46.0139 12.1861 46.1695 12.1861C46.3252 12.1861 46.4808 12.1471 46.6365 12.1082C46.7922 12.0304 46.9089 11.9526 47.0257 11.8358C47.1424 11.7191 47.2202 11.6023 47.2981 11.4467C47.3759 11.291 47.3759 11.1353 47.3759 10.9797C47.3759 10.824 47.337 10.6684 47.2981 10.5127C47.2202 10.357 47.1424 10.2403 47.0257 10.1236C46.9089 10.0068 46.7922 9.92898 46.6365 9.85115C46.4808 9.77332 46.3252 9.77332 46.1695 9.77332C46.0139 9.77332 45.8582 9.81223 45.7025 9.85115C45.5469 9.92898 45.4301 10.0068 45.3134 10.1236C45.1966 10.2403 45.1188 10.357 45.041 10.5127C45.0021 10.6295 44.9632 10.7851 44.9632 10.9797Z" fill="black"/>
<path d="M49.7891 10.9024C49.7891 10.5522 49.8669 10.2019 50.0226 9.89059C50.1782 9.57927 50.3728 9.30686 50.6063 9.07337C50.8398 8.83988 51.1122 8.64531 51.4624 8.52856C51.7737 8.3729 52.124 8.33398 52.4742 8.33398C52.8244 8.33398 53.1747 8.41181 53.5249 8.52856C53.8362 8.68422 54.1476 8.8788 54.3811 9.11229C54.6145 9.34578 54.8091 9.61819 54.9648 9.96842C55.1204 10.2797 55.1594 10.63 55.1594 11.0191C55.1594 11.3694 55.0815 11.7196 54.9648 12.0698C54.8091 12.3812 54.6535 12.6925 54.3811 12.926C54.1476 13.1595 53.8752 13.354 53.5249 13.5097C53.2136 13.6654 52.8634 13.7043 52.4742 13.7043C52.2407 13.7043 52.0461 13.6654 51.8516 13.6265C51.657 13.5875 51.4624 13.5097 51.2678 13.393V14.755C51.2678 14.8717 51.2678 14.9496 51.2289 15.0663C51.19 15.1441 51.1511 15.222 51.0733 15.2998C50.9954 15.3776 50.9176 15.4165 50.8398 15.4555C50.7619 15.4944 50.6452 15.4944 50.5674 15.4944C50.4506 15.4944 50.3728 15.4944 50.295 15.4555C50.2171 15.4165 50.1393 15.3776 50.0615 15.2998C49.9836 15.222 49.9447 15.1441 49.9058 15.0663C49.8669 14.9885 49.828 14.8717 49.828 14.755V10.9024H49.7891ZM51.2678 10.9802C51.2678 11.1359 51.3068 11.2915 51.3457 11.4472C51.4235 11.6029 51.5013 11.7196 51.6181 11.8364C51.7348 11.9531 51.8516 12.0309 52.0072 12.1088C52.1629 12.1866 52.3186 12.1866 52.4742 12.1866C52.6299 12.1866 52.7855 12.1477 52.9412 12.1088C53.0969 12.0309 53.2136 11.9531 53.3303 11.8364C53.4471 11.7196 53.5249 11.6029 53.6027 11.4472C53.6806 11.2915 53.6806 11.1359 53.6806 10.9802C53.6806 10.8246 53.6417 10.6689 53.6027 10.5132C53.5249 10.3576 53.4471 10.2408 53.3303 10.1241C53.2136 10.0073 53.0969 9.92951 52.9412 9.85168C52.7855 9.77385 52.6299 9.77385 52.4742 9.77385C52.3186 9.77385 52.1629 9.81276 52.0072 9.85168C51.8516 9.92951 51.7348 10.0073 51.6181 10.1241C51.5013 10.2408 51.4235 10.3576 51.3457 10.5132C51.3068 10.63 51.2678 10.7856 51.2678 10.9802Z" fill="black"/>
<path d="M58.275 13.6262C57.9248 13.6262 57.5745 13.5483 57.2243 13.4316C56.913 13.2759 56.6016 13.1203 56.3681 12.8479C56.1347 12.6144 55.9401 12.342 55.7844 11.9917C55.6288 11.6804 55.5898 11.3302 55.5898 10.941C55.5898 10.5908 55.6677 10.2405 55.7844 9.8903C55.9401 9.57898 56.1347 9.26765 56.3681 9.03416C56.6016 8.80067 56.874 8.6061 57.2243 8.45044C57.5356 8.29477 57.8858 8.25586 58.275 8.25586C58.6252 8.25586 58.9755 8.33369 59.2868 8.45044C59.5981 8.6061 59.8705 8.76176 60.1429 8.99525C60.3764 9.22874 60.571 9.50115 60.7266 9.81247C60.8823 10.1238 60.9601 10.474 60.9601 10.8243V12.77C60.9601 12.8868 60.9601 12.9646 60.9212 13.0813C60.8823 13.1592 60.8434 13.237 60.7656 13.3148C60.6877 13.3927 60.6099 13.4316 60.5321 13.4705C60.4542 13.5094 60.3375 13.5094 60.2597 13.5094C60.104 13.5094 59.9873 13.4705 59.9094 13.4316C59.7927 13.3538 59.7149 13.2759 59.6759 13.1981C59.4814 13.3148 59.2868 13.3927 59.0533 13.4705C58.742 13.5872 58.5085 13.6262 58.275 13.6262ZM58.275 12.1474C58.4307 12.1474 58.5863 12.1085 58.742 12.0695C58.8976 11.9917 59.0144 11.9139 59.1311 11.7971C59.2479 11.6804 59.3257 11.5637 59.4035 11.408C59.4814 11.2523 59.4814 11.0967 59.4814 10.941C59.4814 10.7853 59.4424 10.6297 59.4035 10.474C59.3257 10.3184 59.2479 10.2016 59.1311 10.0849C59.0144 9.96813 58.8976 9.8903 58.742 9.81247C58.5863 9.73464 58.4307 9.73464 58.275 9.73464C58.1193 9.73464 57.9637 9.77355 57.808 9.81247C57.6523 9.8903 57.5356 9.96813 57.4189 10.0849C57.3021 10.2016 57.2243 10.3184 57.1465 10.474C57.0686 10.6297 57.0686 10.7853 57.0686 10.941C57.0686 11.0967 57.1075 11.2523 57.1465 11.408C57.2243 11.5637 57.3021 11.6804 57.4189 11.7971C57.5356 11.9139 57.6523 11.9917 57.808 12.0695C57.9637 12.1474 58.1193 12.1474 58.275 12.1474Z" fill="black"/>
<path d="M61.8163 8.9954C61.8163 8.87865 61.8163 8.80082 61.8552 8.72299C61.8941 8.64516 61.933 8.56733 62.0108 8.4895C62.0887 8.41167 62.1665 8.37275 62.2443 8.33384C62.3222 8.29492 62.4389 8.29492 62.5167 8.29492C62.6335 8.29492 62.7113 8.29492 62.7891 8.33384C62.867 8.37275 62.9448 8.41167 63.0226 8.4895C63.1005 8.56733 63.1394 8.64516 63.1783 8.72299C63.2172 8.80082 63.2172 8.91757 63.2172 8.9954V11.019C63.2172 11.1746 63.2561 11.3303 63.295 11.4471C63.334 11.6027 63.4507 11.7195 63.5285 11.7973C63.6453 11.914 63.762 11.9919 63.8788 12.0308C64.0344 12.0697 64.1512 12.1086 64.3457 12.1086C64.5014 12.1086 64.6571 12.0697 64.8127 12.0308C64.9684 11.953 65.0851 11.8751 65.163 11.7973C65.2797 11.6805 65.3575 11.5638 65.3965 11.4471C65.4354 11.2914 65.4743 11.1746 65.4743 10.9801V8.9954C65.4743 8.87865 65.5132 8.80082 65.5521 8.72299C65.591 8.64516 65.63 8.56733 65.7078 8.4895C65.7856 8.41167 65.8634 8.37275 65.9413 8.33384C66.0191 8.29492 66.1358 8.29492 66.2137 8.29492C66.3304 8.29492 66.4083 8.29492 66.4861 8.33384C66.5639 8.37275 66.6417 8.41167 66.7196 8.4895C66.7974 8.56733 66.8363 8.64516 66.8752 8.72299C66.9142 8.80082 66.9142 8.91757 66.9142 8.9954V11.019C66.9142 11.3303 66.8752 11.6027 66.7585 11.8751C66.6807 12.1475 66.525 12.381 66.3693 12.6145C66.2137 12.848 66.0191 13.0037 65.7856 13.1593C65.5521 13.315 65.3186 13.4317 65.0462 13.5096V14.7159C65.0462 14.8327 65.0462 14.9105 65.0073 15.0273C64.9684 15.1051 64.9295 15.1829 64.8516 15.2607C64.7738 15.3386 64.696 15.3775 64.6182 15.4164C64.5403 15.4553 64.4236 15.4553 64.3457 15.4553C64.229 15.4553 64.1512 15.4553 64.0733 15.4164C63.9955 15.3775 63.9177 15.3386 63.8399 15.2607C63.762 15.1829 63.7231 15.1051 63.6842 15.0273C63.6453 14.9494 63.6453 14.8327 63.6453 14.7159V13.5096C63.3729 13.4317 63.1394 13.315 62.9059 13.1593C62.6724 13.0037 62.4778 12.8091 62.3222 12.5756C62.1665 12.3421 62.0498 12.1086 61.933 11.8362C61.8552 11.5638 61.7773 11.2914 61.7773 11.019V8.9954H61.8163Z" fill="black"/>
</g>
<rect x="68.7539" y="5.29346" width="10.3605" height="10.3605" rx="5.18023" fill="#E5B800" fill-opacity="0.15"/>
<path d="M75.3178 7.17725H72.5487C71.3525 7.17725 70.6367 7.89306 70.6367 9.08922V11.8583C70.6367 13.0545 71.3525 13.7703 72.5487 13.7703H75.3178C76.5139 13.7703 77.2297 13.0545 77.2297 11.8583V9.08922C77.2297 7.89306 76.5139 7.17725 75.3178 7.17725ZM75.9394 9.4848L73.7072 12.0938C73.6224 12.1974 73.4906 12.2633 73.3587 12.2633C73.3493 12.2633 73.3493 12.2633 73.3399 12.2633C73.208 12.2633 73.0856 12.2162 72.9914 12.122L71.9553 11.1048C71.767 10.9164 71.767 10.6056 71.9553 10.4172C72.1437 10.2289 72.4545 10.2195 72.6429 10.4172L73.3022 11.0671L75.1859 8.86318C75.3649 8.65597 75.6663 8.63713 75.8735 8.80666C76.0901 8.9762 76.1089 9.28701 75.9394 9.4848Z" fill="#E6B800"/>
<defs>
<clipPath id="clip0_840_29430">
<rect width="64.9884" height="17.1227" fill="white" transform="translate(1.88281 1.9126)"/>
</clipPath>
</defs>
</svg>
