<svg width="83" height="20" viewBox="0 0 83 20" fill="none" xmlns="http://www.w3.org/2000/svg">
<rect y="0.944824" width="83" height="19.0573" rx="9.52866" fill="#FBF4D9"/>
<g clip-path="url(#clip0_840_29583)">
<path d="M12.8147 5.99649H4.51614C4.23497 5.99649 4.0004 6.23343 4.0004 6.51855V7.45448C4.0004 7.74671 4.23497 7.97733 4.51654 7.97733H12.8143C13.1025 7.97733 13.3304 7.7396 13.3371 7.45487V6.52527C13.3371 6.23383 13.1025 5.99609 12.8147 5.99609V5.99649ZM12.8147 11.2061H4.51614C4.44821 11.2062 4.38097 11.2198 4.31834 11.2461C4.2557 11.2724 4.19891 11.3109 4.15125 11.3593C4.05422 11.4577 3.99988 11.5903 4 11.7285V12.6645C4 12.9567 4.23457 13.1869 4.51614 13.1869H12.8139C13.1022 13.1869 13.33 12.9563 13.3367 12.6648V11.7285C13.3367 11.4367 13.1025 11.2061 12.8147 11.2061ZM9.18825 13.8045H4.51654C4.3795 13.8045 4.248 13.8594 4.15164 13.9574C4.05462 14.0558 4.00028 14.1884 4.0004 14.3266V15.2625C4.0004 15.5548 4.23497 15.785 4.51654 15.785H9.18154C9.46982 15.785 9.69768 15.548 9.69768 15.2629V14.3266C9.69942 14.2586 9.68753 14.191 9.66271 14.1276C9.63789 14.0643 9.60064 14.0066 9.55316 13.9579C9.50568 13.9092 9.44893 13.8705 9.38626 13.8441C9.32359 13.8177 9.25626 13.8045 9.18825 13.8045ZM13.3371 8.60088H4.51654C4.3795 8.60088 4.248 8.65617 4.15164 8.75371C4.05452 8.8522 4.00017 8.98502 4.0004 9.12334V10.0593C4.0004 10.3511 4.23497 10.5817 4.51654 10.5817H13.3308C13.6191 10.5817 13.8465 10.3444 13.8465 10.0593V9.12334C13.8477 9.05551 13.8354 8.98812 13.8104 8.92507C13.7853 8.86201 13.7481 8.80454 13.7007 8.75596C13.6533 8.70739 13.5968 8.66868 13.5344 8.64206C13.472 8.61544 13.405 8.60145 13.3371 8.60088Z" fill="#00C3F7"/>
<path d="M22.9949 8.10608C22.74 7.8422 22.4346 7.63229 22.0969 7.48885C21.7573 7.34611 21.3927 7.27228 21.0243 7.27165C20.6653 7.26336 20.3094 7.34008 19.9857 7.49556C19.7685 7.59942 19.5727 7.74435 19.4092 7.92285V7.76054C19.4079 7.67792 19.3771 7.5985 19.3223 7.53663C19.2952 7.50435 19.2614 7.47847 19.2231 7.46086C19.1849 7.44324 19.1432 7.43432 19.1011 7.43475H17.9413C17.8991 7.43363 17.8572 7.44224 17.8188 7.4599C17.7805 7.47757 17.7467 7.50382 17.7202 7.53663C17.6626 7.59676 17.6312 7.67729 17.6329 7.76054V15.4872C17.6329 15.5686 17.6664 15.6499 17.7198 15.7108C17.7489 15.7395 17.7834 15.7622 17.8214 15.7774C17.8594 15.7925 17.9 15.8 17.9409 15.7992H19.1142C19.1947 15.7992 19.2682 15.7653 19.3286 15.7108C19.3602 15.6831 19.3851 15.6486 19.4014 15.6099C19.4177 15.5711 19.4249 15.5292 19.4226 15.4872V12.8481C19.59 13.0313 19.8045 13.1672 20.039 13.2485C20.3475 13.3638 20.6693 13.4183 20.9975 13.4183C21.3726 13.4183 21.7415 13.35 22.0835 13.2011C22.4269 13.058 22.7372 12.8456 22.9949 12.5772C23.2623 12.2975 23.4719 11.9678 23.6117 11.6069C23.7705 11.2031 23.848 10.7719 23.8396 10.3381C23.8446 9.90248 23.7673 9.46985 23.6117 9.06294C23.4674 8.70829 23.2581 8.38376 22.9945 8.10608H22.9949ZM21.9362 10.9008C21.8748 11.0647 21.7814 11.2146 21.6613 11.3419C21.5424 11.4698 21.398 11.5714 21.2375 11.6403C21.0771 11.7092 20.904 11.7438 20.7293 11.742C20.5485 11.742 20.3743 11.708 20.2136 11.6334C20.0549 11.565 19.9113 11.4659 19.791 11.3419C19.6712 11.2132 19.5758 11.0637 19.5095 10.9008C19.3755 10.5515 19.3755 10.165 19.5095 9.81562C19.5699 9.65292 19.6706 9.50365 19.791 9.38123C19.9123 9.25668 20.0556 9.1556 20.2136 9.08308C20.3747 9.0071 20.5513 8.96991 20.7293 8.97448C20.9106 8.97448 21.0847 9.00844 21.2522 9.08268C21.4062 9.15771 21.5472 9.25249 21.668 9.37491C21.7885 9.50365 21.8757 9.64582 21.9429 9.80891C22.0713 10.162 22.069 10.5494 21.9362 10.9008ZM30.1533 7.43435H28.9872C28.9468 7.4342 28.9068 7.44256 28.8699 7.45889C28.8329 7.47522 28.7998 7.49915 28.7727 7.52913C28.7427 7.55958 28.719 7.59566 28.7029 7.63531C28.6869 7.67495 28.6788 7.71738 28.6791 7.76015V7.90231C28.5325 7.73176 28.3522 7.5933 28.1496 7.49556C27.8324 7.34149 27.4833 7.26476 27.1307 7.27165C26.3798 7.27294 25.6596 7.57037 25.1266 8.09937C24.8518 8.3784 24.6333 8.70768 24.4829 9.06926C24.3156 9.4733 24.2336 9.90756 24.242 10.3448C24.2348 10.7819 24.3168 11.2159 24.4829 11.6203C24.6325 11.9807 24.8486 12.3097 25.1199 12.5902C25.379 12.8572 25.6897 13.0688 26.033 13.2122C26.3764 13.3555 26.7452 13.4277 27.1173 13.4243C27.4727 13.4314 27.821 13.3567 28.1429 13.2004C28.3439 13.0989 28.5315 12.9634 28.6791 12.7936V12.9496C28.6791 13.0309 28.7123 13.1123 28.7727 13.1735C28.8332 13.2276 28.907 13.2616 28.9872 13.2616H30.1533C30.2353 13.26 30.3139 13.2287 30.3745 13.1735C30.4035 13.1441 30.4262 13.1091 30.4412 13.0706C30.4562 13.0321 30.4632 12.9909 30.4617 12.9496V7.76015C30.4636 7.67695 30.4323 7.59643 30.3749 7.53624C30.3483 7.50343 30.3145 7.47718 30.2762 7.45951C30.2378 7.44184 30.1955 7.43323 30.1533 7.43435ZM28.5784 10.8941C28.5171 11.058 28.4236 11.2079 28.3036 11.3352C28.183 11.4575 28.0426 11.5583 27.8882 11.6334C27.5596 11.7826 27.1773 11.7826 26.8492 11.6334C26.6912 11.5609 26.5479 11.4598 26.4266 11.3352C26.3067 11.2079 26.2134 11.058 26.1522 10.8941C26.0248 10.5459 26.0248 10.1638 26.1522 9.81562C26.2122 9.65292 26.3062 9.51036 26.427 9.38123C26.5475 9.2592 26.688 9.15771 26.8492 9.08308C27.0124 9.00935 27.1894 8.97122 27.3685 8.97122C27.5475 8.97122 27.7246 9.00935 27.8878 9.08308C28.0422 9.15771 28.1831 9.25249 28.3036 9.37452C28.4177 9.50365 28.5113 9.64582 28.5784 9.80891C28.7127 10.1616 28.7127 10.5482 28.5784 10.8941ZM41.7829 10.1951C41.6148 10.0472 41.4219 9.93017 41.213 9.84959C40.9917 9.76129 40.763 9.69309 40.5294 9.64582L39.6377 9.46969C39.4099 9.42901 39.2492 9.3678 39.1619 9.29317C39.1256 9.26793 39.0958 9.2345 39.0749 9.1956C39.054 9.1567 39.0425 9.11342 39.0414 9.06926C39.0414 8.97448 39.0951 8.89313 39.2089 8.8252C39.3629 8.74385 39.5307 8.70278 39.7049 8.71661C39.9327 8.71661 40.1606 8.76399 40.3683 8.85206C40.5697 8.94052 40.7707 9.0424 40.9516 9.16403C41.213 9.32713 41.4342 9.29988 41.5882 9.11664L42.0174 8.62854C42.0976 8.5468 42.1446 8.43859 42.1517 8.32328C42.1481 8.26387 42.1319 8.20591 42.1041 8.15327C42.0763 8.10063 42.0376 8.05452 41.9906 8.01802C41.8093 7.86203 41.5214 7.69222 41.1392 7.52952C40.7573 7.36682 40.2743 7.27836 39.7049 7.27836C39.3573 7.27371 39.0112 7.32409 38.6793 7.42764C38.3956 7.51513 38.13 7.65291 37.895 7.83439C37.6834 8.00009 37.5116 8.21115 37.3923 8.45202C37.2787 8.68686 37.2192 8.94421 37.2182 9.2051C37.2182 9.68689 37.3655 10.0802 37.6537 10.3716C37.942 10.6635 38.3243 10.8534 38.8002 10.9482L39.725 11.152C39.9264 11.1859 40.127 11.2468 40.315 11.3352C40.4153 11.3759 40.4824 11.4774 40.4824 11.5927C40.4824 11.6946 40.4287 11.7894 40.315 11.8711C40.2009 11.9525 40.0133 12.0066 39.772 12.0066C39.5191 12.0109 39.2687 11.9551 39.0414 11.8439C38.826 11.7399 38.6255 11.6076 38.4451 11.4505C38.366 11.384 38.2749 11.3333 38.1766 11.3013C38.0696 11.2673 37.942 11.3013 37.8014 11.4166L37.292 11.8032C37.2227 11.8532 37.1689 11.9217 37.1369 12.001C37.1049 12.0802 37.096 12.1669 37.1111 12.251C37.1376 12.4208 37.2786 12.5898 37.54 12.7869C38.1825 13.2206 38.9432 13.4457 39.7183 13.4314C40.0791 13.436 40.4385 13.3857 40.7842 13.2821C41.0806 13.1925 41.3594 13.0525 41.6083 12.8682C41.8295 12.6984 42.0174 12.4812 42.1446 12.2305C42.2672 11.9838 42.3314 11.7122 42.3322 11.4367C42.3378 11.1891 42.2874 10.9434 42.1849 10.718C42.0836 10.5209 41.9474 10.3435 41.7829 10.1951ZM46.8767 11.6065C46.8506 11.5602 46.8139 11.5207 46.7697 11.4912C46.7254 11.4617 46.6748 11.443 46.622 11.4367C46.515 11.4367 46.4076 11.4707 46.3203 11.5315C46.1783 11.6248 46.0141 11.6788 45.8445 11.6879C45.7908 11.6879 45.7307 11.6812 45.677 11.6673C45.6189 11.6557 45.5654 11.6274 45.523 11.586C45.4695 11.5361 45.4262 11.4763 45.3955 11.4099C45.3576 11.3103 45.3394 11.2044 45.3418 11.0979V8.98119H46.8566C46.9451 8.97909 47.0292 8.94254 47.0912 8.87931C47.1226 8.85103 47.1478 8.81652 47.1651 8.77797C47.1825 8.73941 47.1916 8.69767 47.1919 8.6554V7.76054C47.1924 7.71715 47.1838 7.67414 47.1664 7.63437C47.149 7.5946 47.1234 7.55899 47.0912 7.52992C47.0304 7.46995 46.9487 7.43597 46.8633 7.43514H45.3485V5.98979C45.3509 5.94682 45.3438 5.90384 45.3276 5.86395C45.3114 5.82407 45.2866 5.78828 45.2549 5.75917C45.1967 5.70407 45.1201 5.67267 45.04 5.6711H43.8605C43.7759 5.66946 43.6941 5.70108 43.6326 5.75917C43.5701 5.81985 43.5341 5.90271 43.5323 5.98979V7.43514H42.8617C42.8196 7.43398 42.7777 7.44252 42.7394 7.46012C42.701 7.47772 42.6672 7.5039 42.6406 7.53663C42.5858 7.5985 42.555 7.67792 42.5537 7.76054V8.65579C42.5537 8.73714 42.5869 8.81889 42.6406 8.8797C42.6661 8.91366 42.6997 8.94075 42.7383 8.95853C42.7769 8.97632 42.8193 8.98424 42.8617 8.98159H43.5323V11.4983C43.5257 11.7971 43.5852 12.0936 43.7064 12.3667C43.8145 12.5899 43.9673 12.7884 44.1555 12.95C44.343 13.106 44.5642 13.2146 44.792 13.2825C45.0287 13.3559 45.2752 13.3925 45.523 13.3911C45.8488 13.3904 46.1724 13.3376 46.4814 13.2347C46.7681 13.1391 47.0278 12.9764 47.2389 12.76C47.303 12.6941 47.342 12.6079 47.3493 12.5163C47.3566 12.4246 47.3316 12.3333 47.2788 12.2581L46.8767 11.6065ZM53.2643 7.43435H52.0982C52.0578 7.4342 52.0178 7.44256 51.9809 7.45889C51.9439 7.47522 51.9108 7.49915 51.8837 7.52913C51.8536 7.55954 51.8298 7.5956 51.8137 7.63525C51.7975 7.6749 51.7894 7.71734 51.7897 7.76015V7.90231C51.6432 7.73166 51.4629 7.59317 51.2602 7.49556C50.941 7.34077 50.5896 7.26403 50.235 7.27165C49.864 7.27167 49.4967 7.34478 49.154 7.48681C48.8112 7.62883 48.4998 7.83698 48.2376 8.09937C47.9607 8.37669 47.7419 8.7064 47.5939 9.06926C47.4272 9.471 47.345 9.90279 47.3526 10.3377C47.3456 10.7748 47.4277 11.2088 47.5939 11.6132C47.7416 11.9726 47.9627 12.3051 48.2309 12.5831C48.4893 12.8497 48.7987 13.0616 49.1407 13.2061C49.4827 13.3506 49.8503 13.4248 50.2216 13.4243C50.5754 13.4309 50.926 13.3566 51.2468 13.2071C51.4482 13.1056 51.6357 12.9701 51.783 12.8003V12.9496C51.7838 13.0325 51.8162 13.1115 51.8739 13.1695C51.9314 13.2278 52.0096 13.2609 52.0915 13.2616H53.2643C53.3456 13.2617 53.4236 13.2296 53.4814 13.1725C53.5392 13.1153 53.572 13.0376 53.5727 12.9563V7.76054C53.5736 7.71932 53.5664 7.67832 53.5514 7.63991C53.5364 7.60149 53.514 7.56639 53.4855 7.53663C53.4589 7.5038 53.4251 7.47753 53.3868 7.45986C53.3484 7.44219 53.3065 7.4332 53.2643 7.43435ZM51.6894 10.8941C51.628 11.0579 51.5346 11.2079 51.4146 11.3352C51.2939 11.4575 51.1533 11.5583 50.9988 11.6334C50.8356 11.7101 50.6566 11.7473 50.4763 11.742C50.295 11.742 50.1209 11.7013 49.9602 11.6334C49.8022 11.5608 49.6589 11.4598 49.5376 11.3352C49.4176 11.2079 49.3242 11.0579 49.2628 10.8941C49.1356 10.5459 49.1356 10.1639 49.2628 9.81562C49.3243 9.65387 49.4178 9.50615 49.5376 9.38123C49.6585 9.2592 49.799 9.15771 49.9602 9.08308C50.1222 9.00952 50.2984 8.97245 50.4763 8.97448C50.6572 8.97448 50.8313 9.00844 50.9988 9.08268C51.1532 9.15771 51.2938 9.25249 51.4146 9.37491C51.535 9.50365 51.629 9.64582 51.6894 9.80891C51.83 10.157 51.83 10.546 51.6894 10.8941ZM59.6657 11.5319L58.9952 11.0161C58.868 10.9146 58.7472 10.8874 58.6402 10.9281C58.5458 10.9685 58.4613 11.0287 58.3922 11.1046C58.2455 11.2822 58.0739 11.4375 57.8827 11.5658C57.6817 11.6812 57.4602 11.7356 57.2323 11.7218C56.9704 11.7248 56.7141 11.6453 56.4998 11.4948C56.2843 11.3433 56.1211 11.1288 56.0326 10.8807C55.9718 10.7108 55.9401 10.5319 55.939 10.3515C55.939 10.1683 55.9655 9.98504 56.0326 9.80891C56.093 9.64582 56.1803 9.49694 56.3007 9.37452C56.4216 9.25249 56.5622 9.15061 56.7162 9.08268C56.8802 9.00718 57.0585 8.96798 57.239 8.96776C57.4668 8.95957 57.6923 9.01597 57.8894 9.13047C58.0822 9.25678 58.2541 9.4124 58.3989 9.59171C58.4656 9.66635 58.5462 9.72717 58.6402 9.76824C58.7472 9.80891 58.868 9.78166 58.9885 9.67978L59.659 9.17114C59.7392 9.11664 59.8063 9.03529 59.8332 8.94052C59.8521 8.88979 59.8596 8.83546 59.8549 8.7815C59.8503 8.72753 59.8337 8.67528 59.8063 8.62854C59.5476 8.22482 59.193 7.89146 58.774 7.65826C58.3317 7.4075 57.8022 7.27836 57.2122 7.27836C56.7963 7.27848 56.3843 7.35907 55.999 7.5157C55.6309 7.66595 55.2961 7.88738 55.0138 8.16729C54.7305 8.44462 54.507 8.77697 54.357 9.14389C54.0418 9.92045 54.0418 10.7893 54.357 11.5658C54.511 11.9319 54.7322 12.2644 55.0138 12.5357C55.6005 13.1106 56.3908 13.43 57.2122 13.4243C57.8022 13.4243 58.3317 13.2955 58.774 13.0444C59.1966 12.8109 59.5538 12.4751 59.813 12.0678C59.8404 12.0223 59.857 11.9711 59.8616 11.9182C59.8663 11.8653 59.8589 11.8121 59.8399 11.7625C59.8081 11.6689 59.747 11.5881 59.6657 11.5319ZM65.872 12.7391L64.029 10.0324L65.6043 7.9501C65.6411 7.90258 65.6663 7.84714 65.6778 7.78818C65.6894 7.72922 65.6871 7.66838 65.671 7.61048C65.6442 7.52952 65.5707 7.44106 65.3764 7.44106H64.1297C64.0579 7.44309 63.9872 7.45919 63.9216 7.48845C63.8445 7.52721 63.7814 7.58887 63.7407 7.66497L62.4806 9.42901H62.1789V5.25685C62.1798 5.21565 62.1727 5.17466 62.1577 5.13624C62.1428 5.09782 62.1205 5.06272 62.092 5.03294C62.0628 5.00432 62.0283 4.9818 61.9903 4.96668C61.9523 4.95156 61.9117 4.94415 61.8709 4.94487H60.7043C60.6224 4.94644 60.5438 4.97774 60.4832 5.03294C60.452 5.06104 60.4275 5.09569 60.4113 5.1344C60.3951 5.17312 60.3877 5.21493 60.3896 5.25685V12.9496C60.3896 13.0377 60.4228 13.1194 60.4832 13.1735C60.5123 13.2021 60.5469 13.2247 60.5849 13.2398C60.6228 13.2549 60.6635 13.2623 60.7043 13.2616H61.8709C61.9528 13.26 62.0314 13.2287 62.092 13.1735C62.1205 13.1437 62.1428 13.1086 62.1577 13.0702C62.1727 13.0318 62.1798 12.9908 62.1789 12.9496V10.9146H62.5142L63.888 13.0242C63.9686 13.1735 64.123 13.2683 64.2905 13.2683H65.5976C65.7986 13.2683 65.8788 13.1735 65.9123 13.0921C65.9359 13.0347 65.9446 12.9722 65.9376 12.9104C65.9305 12.8487 65.908 12.7898 65.872 12.7391ZM36.7826 7.43435H35.4755C35.4271 7.43152 35.3787 7.43916 35.3336 7.45674C35.2885 7.47433 35.2477 7.50144 35.214 7.53624C35.1549 7.59638 35.1133 7.67146 35.0936 7.75343L34.128 11.3486H33.8939L32.862 7.75343C32.8423 7.67743 32.8081 7.60595 32.7613 7.54295C32.7328 7.50843 32.697 7.48074 32.6564 7.46195C32.6157 7.44315 32.5714 7.43372 32.5267 7.43435H31.1726C30.9988 7.43435 30.8914 7.48885 30.8444 7.60416C30.8108 7.70565 30.8108 7.82136 30.8444 7.92285L32.4998 12.9768C32.5267 13.0515 32.567 13.1261 32.6274 13.1802C32.6945 13.2414 32.7814 13.275 32.875 13.2683H33.5724L33.512 13.4314L33.358 13.8993C33.3106 14.0415 33.2237 14.1706 33.1033 14.2654C32.9918 14.351 32.8548 14.3965 32.7143 14.3945C32.5938 14.3945 32.4734 14.3673 32.366 14.3195C32.2559 14.2718 32.1523 14.2103 32.0576 14.1367C31.9715 14.0752 31.8683 14.0421 31.7626 14.0419H31.7491C31.6885 14.0449 31.6296 14.0633 31.578 14.0952C31.5264 14.1272 31.4838 14.1718 31.4541 14.2247L31.0387 14.8353C30.8713 15.0998 30.9649 15.2696 31.0723 15.3644C31.2939 15.5691 31.5567 15.7241 31.8431 15.819C32.1603 15.9273 32.4932 15.9823 32.8284 15.9817C33.4247 15.9817 33.9274 15.819 34.3093 15.4936C34.7081 15.1434 34.9988 14.6868 35.1473 14.1773L37.0645 7.92285C37.1048 7.81425 37.1115 7.69894 37.0713 7.59034C37.0377 7.5157 36.9635 7.43435 36.7826 7.43435Z" fill="#011B33"/>
</g>
<rect x="68" y="4.97363" width="11" height="11" rx="5.5" fill="#E5B800" fill-opacity="0.15"/>
<path d="M74.97 6.97363H72.03C70.76 6.97363 70 7.73363 70 9.00363V11.9436C70 13.2136 70.76 13.9736 72.03 13.9736H74.97C76.24 13.9736 77 13.2136 77 11.9436V9.00363C77 7.73363 76.24 6.97363 74.97 6.97363ZM75.63 9.42363L73.26 12.1936C73.17 12.3036 73.03 12.3736 72.89 12.3736C72.88 12.3736 72.88 12.3736 72.87 12.3736C72.73 12.3736 72.6 12.3236 72.5 12.2236L71.4 11.1436C71.2 10.9436 71.2 10.6136 71.4 10.4136C71.6 10.2136 71.93 10.2036 72.13 10.4136L72.83 11.1036L74.83 8.76363C75.02 8.54363 75.34 8.52363 75.56 8.70363C75.79 8.88363 75.81 9.21363 75.63 9.42363Z" fill="#E6B800"/>
<defs>
<clipPath id="clip0_840_29583">
<rect width="62" height="11.0573" fill="white" transform="translate(4 4.94482)"/>
</clipPath>
</defs>
</svg>
