<svg width="15" height="13" viewBox="0 0 15 13" fill="none" xmlns="http://www.w3.org/2000/svg">
<g clip-path="url(#clip0_132_9281)">
<path d="M3.4091 12.0161V6.22062L1.61174 4.5763L0 3.66382V10.9934C0 11.5593 0.458496 12.0161 1.02275 12.0161H3.4091Z" fill="#4285F4"/>
<path d="M11.5908 12.0161H13.9772C14.5431 12.0161 14.9999 11.5575 14.9999 10.9933V3.66382L13.1744 4.70896L11.5908 6.22056V12.0161Z" fill="#34A853"/>
<path d="M3.40912 6.22062L3.16455 3.95614L3.40912 1.78882L7.50002 4.85702L11.5909 1.78882L11.8645 3.83913L11.5909 6.22062L7.50002 9.28882L3.40912 6.22062Z" fill="#EA4335"/>
<path d="M11.5908 1.78879V6.22059L14.9999 3.66379V2.30014C14.9999 1.03539 13.5562 0.314396 12.5454 1.07289L11.5908 1.78879Z" fill="#FBBC04"/>
<path d="M0 3.66382L1.56791 4.83979L3.4091 6.22061V1.78882L2.45449 1.07292C1.44199 0.314364 0 1.03542 0 2.30011V3.66382Z" fill="#C5221F"/>
</g>
<defs>
<clipPath id="clip0_132_9281">
<rect width="15" height="11.3086" fill="white" transform="translate(0 0.763184)"/>
</clipPath>
</defs>
</svg>
