<svg width="16" height="17" viewBox="0 0 16 17" fill="none" xmlns="http://www.w3.org/2000/svg">
<g clip-path="url(#clip0_132_9272)">
<path d="M0.338778 8.28587C0.338406 9.63018 0.689662 10.9428 1.35757 12.0998L0.274902 16.0528L4.3203 14.992C5.4392 15.6012 6.69285 15.9203 7.96681 15.9204H7.97016C12.1757 15.9204 15.5992 12.4982 15.601 8.29189C15.6018 6.25362 14.8087 4.33697 13.3679 2.89499C11.9272 1.45313 10.0113 0.658645 7.96985 0.657715C3.76377 0.657715 0.340577 4.07973 0.33884 8.28587" fill="url(#paint0_linear_132_9272)"/>
<path d="M0.0663566 8.28336C0.0659225 9.67604 0.429767 11.0356 1.12149 12.234L0 16.3287L4.19045 15.23C5.34505 15.8595 6.64502 16.1914 7.96781 16.1919H7.97122C12.3277 16.1919 15.8741 12.6466 15.876 8.28969C15.8767 6.17818 15.0551 4.19263 13.5628 2.69899C12.0703 1.20553 10.0858 0.38246 7.97122 0.381592C3.61402 0.381592 0.068093 3.9264 0.0663566 8.28336ZM2.56192 12.0276L2.40546 11.7792C1.74772 10.7334 1.40056 9.52485 1.40105 8.28386C1.40242 4.66246 4.34964 1.71617 7.97371 1.71617C9.72874 1.71691 11.3781 2.40106 12.6187 3.64237C13.8592 4.88379 14.5418 6.53403 14.5413 8.28919C14.5397 11.9106 11.5924 14.8573 7.97122 14.8573H7.96862C6.78952 14.8566 5.63312 14.54 4.62462 13.9416L4.38462 13.7993L1.89792 14.4512L2.56192 12.0276Z" fill="url(#paint1_linear_132_9272)"/>
<path d="M5.99552 4.9799C5.84755 4.65103 5.69183 4.6444 5.55112 4.63863C5.43589 4.63367 5.30417 4.63404 5.17257 4.63404C5.04085 4.63404 4.82684 4.68359 4.64594 4.88111C4.46485 5.07881 3.95459 5.55658 3.95459 6.5283C3.95459 7.50009 4.66237 8.43919 4.76104 8.57109C4.85983 8.70275 6.12743 10.7607 8.13499 11.5524C9.80346 12.2103 10.143 12.0794 10.5051 12.0464C10.8673 12.0136 11.6737 11.5688 11.8382 11.1076C12.0029 10.6464 12.0029 10.2512 11.9535 10.1686C11.9042 10.0863 11.7724 10.0368 11.5749 9.9381C11.3773 9.83931 10.4063 9.36148 10.2253 9.29556C10.0442 9.2297 9.91254 9.19683 9.78082 9.3946C9.6491 9.59206 9.27087 10.0368 9.15558 10.1686C9.04042 10.3006 8.92513 10.317 8.72767 10.2182C8.53003 10.1191 7.89394 9.91081 7.13927 9.23801C6.55211 8.71447 6.15571 8.06796 6.04048 7.87019C5.92526 7.67274 6.02814 7.5657 6.12718 7.46728C6.21592 7.37878 6.32476 7.23664 6.42361 7.12136C6.52209 7.00601 6.55496 6.92371 6.62082 6.79199C6.68674 6.66015 6.65375 6.5448 6.60445 6.44601C6.55496 6.34722 6.17115 5.37041 5.99552 4.9799Z" fill="white"/>
</g>
<defs>
<linearGradient id="paint0_linear_132_9272" x1="766.579" y1="1540.16" x2="766.579" y2="0.657715" gradientUnits="userSpaceOnUse">
<stop stop-color="#1FAF38"/>
<stop offset="1" stop-color="#60D669"/>
</linearGradient>
<linearGradient id="paint1_linear_132_9272" x1="793.798" y1="1595.09" x2="793.798" y2="0.381592" gradientUnits="userSpaceOnUse">
<stop stop-color="#F9F9F9"/>
<stop offset="1" stop-color="white"/>
</linearGradient>
<clipPath id="clip0_132_9272">
<rect width="15.876" height="16" fill="white" transform="translate(0 0.381592)"/>
</clipPath>
</defs>
</svg>
