<svg width="20" height="20" viewBox="0 0 20 20" fill="none" xmlns="http://www.w3.org/2000/svg">
<path opacity="0.4" d="M17.7083 7.62497C17.3 6.97497 16.8333 6.39164 16.35 5.86664L13.2083 9.00831C13.3083 9.31664 13.3667 9.64997 13.3667 9.99997C13.3667 11.8666 11.8583 13.3666 10 13.3666C9.65 13.3666 9.31667 13.3083 9.00833 13.2083L6.125 16.0916C7.34167 16.775 8.65833 17.1333 10 17.1333C11.4833 17.1333 12.925 16.7 14.2417 15.8916C15.5583 15.075 16.7417 13.8833 17.7083 12.3666C18.5417 11.0666 18.5417 8.9333 17.7083 7.62497Z" fill="#006633"/>
<path d="M11.6829 8.31664L8.31621 11.6833C7.89121 11.25 7.61621 10.65 7.61621 9.99997C7.61621 8.69164 8.68288 7.61664 9.99954 7.61664C10.6495 7.61664 11.2495 7.89164 11.6829 8.31664Z" fill="#006633"/>
<path opacity="0.4" d="M15.2087 4.79167L12.3837 7.61667C11.7753 7 10.9337 6.63334 10.0003 6.63334C8.13366 6.63334 6.63366 8.14167 6.63366 10C6.63366 10.9333 7.00866 11.775 7.61699 12.3833L4.80033 15.2083H4.79199C3.86699 14.4583 3.01699 13.5 2.29199 12.3667C1.45866 11.0583 1.45866 8.93334 2.29199 7.625C3.25866 6.10834 4.44199 4.91667 5.75866 4.1C7.07533 3.3 8.51699 2.85834 10.0003 2.85834C11.8587 2.85834 13.6587 3.54167 15.2087 4.79167Z" fill="#006633"/>
<path d="M12.3834 10C12.3834 11.3083 11.3167 12.3833 10.0001 12.3833C9.95007 12.3833 9.9084 12.3833 9.8584 12.3667L12.3667 9.85834C12.3834 9.90834 12.3834 9.95 12.3834 10Z" fill="#006633"/>
<path d="M18.1417 1.85834C17.8917 1.60834 17.4834 1.60834 17.2334 1.85834L1.8584 17.2417C1.6084 17.4917 1.6084 17.9 1.8584 18.15C1.9834 18.2667 2.14173 18.3333 2.3084 18.3333C2.47507 18.3333 2.6334 18.2667 2.7584 18.1417L18.1417 2.75834C18.4001 2.50834 18.4001 2.10834 18.1417 1.85834Z" fill="#006633"/>
</svg>
