<svg width="130" height="70" viewBox="0 0 130 70" fill="none" xmlns="http://www.w3.org/2000/svg">
<path d="M39.5601 0.316319C42.8801 1.21017 44.5401 2.49987 44.5401 4.18541V4.37695C44.5401 8.56528 42.6375 11.7321 38.8322 13.8773C38.4747 13.8773 38.2959 13.9412 38.2959 14.0688C37.2744 13.8135 36.5465 13.2516 36.1123 12.3833C36.1123 11.6938 37.1467 10.9021 39.2153 10.0082C40.9264 9.8039 41.8968 7.99066 42.1267 4.56849V4.18541C42.1267 3.4448 41.7691 2.88295 41.0541 2.49987C34.9759 2.49987 27.11 7.05851 17.4564 16.1758C13.3958 20.1598 10.395 23.7097 8.45406 26.8254C4.75096 32.3417 2.72064 37.0791 2.3631 41.0376C2.3631 44.9195 5.05742 47.5499 10.4461 48.929C11.6719 49.1844 12.7828 49.3121 13.7789 49.3121H15.2729C21.351 49.3121 28.7062 46.3113 37.3382 40.3097C37.9511 40.0033 38.2576 39.8117 38.2576 39.7351C38.7428 39.9139 38.9854 40.1054 38.9854 40.3097C36.1507 43.3744 32.1666 46.0687 27.0334 48.3927C22.5386 50.1038 19.1036 50.9593 16.7286 50.9593H14.6982L13.3958 50.7678V50.9593C9.46283 50.5507 5.83635 49.1333 2.51634 46.7072C1.06064 44.7407 0.332786 42.9019 0.332786 41.1908C0.332786 36.5173 3.1548 30.388 8.79883 22.803C11.2505 19.5341 14.6216 15.9715 18.9121 12.1151C22.8961 8.43759 26.28 5.98589 29.0637 4.76003C29.5489 4.24926 31.5792 3.20218 35.1547 1.61879C35.4356 1.28678 36.904 0.852629 39.5601 0.316319ZM46.0724 33.4526C46.481 33.4526 46.8386 33.708 47.145 34.2188V34.6785C47.145 34.7806 46.2256 35.4446 44.3869 36.6705C42.3948 38.9179 40.9647 40.0416 40.0964 40.0416C39.6878 40.0416 39.3302 39.4287 39.0237 38.2028L39.177 37.4367C39.0748 36.8748 39.0237 36.4151 39.0237 36.0576C39.2281 35.5979 39.4324 35.3425 39.6367 35.2914H40.0964C40.9136 35.2914 41.3222 35.317 41.3222 35.368V35.8277H41.4755C44.0038 34.2443 45.5361 33.4526 46.0724 33.4526ZM51.3206 33.1079H52.0867L52.8529 33.2611V33.874L53.0061 34.7934C52.5975 35.0743 51.4738 38.2411 49.635 44.2938C48.5113 48.6353 47.9495 52.9769 47.9495 57.3184V58.5443C47.9495 63.1923 48.4092 66.7166 49.3286 69.1173C49.2009 69.628 49.0476 69.8834 48.8689 69.8834H48.7156C47.643 69.8834 46.8769 66.257 46.4172 59.004V56.3991C46.4172 51.9553 47.4898 45.7239 49.635 37.7048H49.3286C48.3836 38.4199 47.6686 38.7774 47.1833 38.7774C45.5489 37.9857 44.7316 36.7088 44.7316 34.9466C44.9359 34.487 45.1402 34.2316 45.3445 34.1805H46.2639C46.8769 34.538 47.1833 34.9466 47.1833 35.4063C47.1833 35.4574 47.1322 35.6617 47.0301 36.0193C47.1322 36.2236 47.1833 36.3768 47.1833 36.479H47.643C48.4092 36.0193 49.635 34.8956 51.3206 33.1079ZM56.0324 33.0696H56.6454C57.6925 33.0696 58.5608 34.1422 59.2503 36.2874C59.2503 37.7176 58.5863 38.7391 57.2583 39.3521C57.054 39.0967 56.9518 38.8413 56.9518 38.5859C55.9558 38.8924 55.394 39.0456 55.2663 39.0456C54.7555 38.8668 54.5001 38.6114 54.5001 38.2794H54.3469C51.8952 41.3441 49.4946 45.8899 47.145 51.917C46.4299 54.0878 46.0724 55.3647 46.0724 55.7478V56.0543L46.2256 56.8204C45.8426 57.1269 45.5361 57.2801 45.3062 57.2801C44.5912 57.0248 44.2336 56.7183 44.2336 56.3608C44.2336 54.4454 46.2256 49.5419 50.2097 41.6505C52.9678 37.5133 54.3469 35.4191 54.3469 35.368C55.062 34.0145 55.6238 33.2483 56.0324 33.0696ZM54.9598 37.6665C55.6494 37.2579 56.2623 37.0536 56.7986 37.0536L57.5648 37.2068V36.4407C57.5648 35.9554 57.3094 35.5468 56.7986 35.2148C55.5728 36.1342 54.9598 36.9514 54.9598 37.6665ZM66.797 19.7767C67.3588 19.7767 67.7164 19.981 67.8696 20.3896C67.7674 21.1047 66.2351 24.6801 63.2726 31.1159C62.6597 32.0352 62.0468 33.4143 61.4339 35.2531L61.7403 35.4063L62.8129 35.2531C63.4514 35.2531 63.9111 35.5085 64.192 36.0193V36.3257C64.192 36.5811 62.9662 36.9897 60.5145 37.5516C59.7739 41.3313 59.1098 43.2211 58.5225 43.2211H58.216C58.216 42.9658 58.0117 42.8125 57.6031 42.7615V42.3018C57.6031 41.7654 58.0628 39.9267 58.9822 36.7854C58.7778 36.4534 58.6757 36.198 58.6757 36.0193C59.6972 35.5851 60.208 34.7168 60.208 33.4143C62.8896 27.8214 64.8816 23.2755 66.184 19.7767H66.797ZM64.8433 41.459C65.022 40.0033 65.4817 38.522 66.2223 37.0153L66.0691 36.7088C66.1457 36.3002 66.2479 36.0959 66.3756 36.0959L66.2223 35.7894C66.2223 35.6106 66.8353 35.4063 68.0611 35.1765C68.342 34.6657 68.8017 34.4103 69.4402 34.4103C70.6661 35.4319 71.7387 35.9426 72.6581 35.9426L71.8919 37.9347L70.8193 37.3217C70.8193 38.7519 69.951 39.8756 68.2144 40.6928C67.5504 40.4885 67.0396 40.2331 66.682 39.9267C66.682 40.2076 66.0691 40.7184 64.8433 41.459ZM86.9852 33.7974H87.5981C88.6452 33.7974 89.3603 34.206 89.7434 35.0233C89.7434 36.1214 87.9557 36.9897 84.3803 37.6282C83.9717 37.526 83.6141 37.475 83.3077 37.475C83.0267 37.475 82.7714 37.7304 82.5415 38.2411C83.0012 38.6497 83.2566 38.854 83.3077 38.854H84.3803C85.0698 38.854 87.5726 38.2411 91.8886 37.0153C92.0929 37.1174 92.2462 37.1685 92.3483 37.1685V37.7814C90.9948 38.9051 88.492 39.8245 84.84 40.5396H84.2271C82.4649 40.5396 81.239 39.7224 80.5495 38.0879C80.5495 36.6067 82.6947 35.1765 86.9852 33.7974ZM94.2254 33.7208H94.5319C94.6851 33.7208 95.1448 34.2826 95.911 35.4063C97.5965 34.8956 98.618 34.6402 98.9756 34.6402C99.4864 34.6402 99.7417 34.9466 99.7417 35.5596C99.7162 35.9171 99.0011 36.4279 97.5965 37.0919C98.2094 37.5771 98.5159 38.0879 98.5159 38.6242V38.7774C98.5159 38.9307 98.3627 39.0839 98.0562 39.2371H97.5965L95.6045 37.858C95.0426 37.9857 93.3571 38.6497 90.5478 39.8501C90.0115 39.5947 89.6029 39.1861 89.322 38.6242V38.3177C89.5774 38.0624 91.1608 37.3983 94.0722 36.3257C94.0722 36.198 93.8168 35.5851 93.306 34.487V34.1805C93.4082 33.874 93.7146 33.7208 94.2254 33.7208ZM102.385 33.0696H102.998C104.045 33.0696 104.913 34.1422 105.603 36.2874C105.603 37.7176 104.939 38.7391 103.611 39.3521C103.407 39.0967 103.304 38.8413 103.304 38.5859C102.308 38.8924 101.747 39.0456 101.619 39.0456C101.108 38.8668 100.853 38.6114 100.853 38.2794H100.699C98.2477 41.3441 95.8471 45.8899 93.4976 51.917C92.7825 54.0878 92.4249 55.3647 92.4249 55.7478V56.0543L92.5782 56.8204C92.1951 57.1269 91.8886 57.2801 91.6588 57.2801C90.9437 57.0248 90.5862 56.7183 90.5862 56.3608C90.5862 54.4454 92.5782 49.5419 96.5622 41.6505C99.3204 37.5133 100.699 35.4191 100.699 35.368C101.415 34.0145 101.976 33.2483 102.385 33.0696ZM101.312 37.6665C102.002 37.2579 102.615 37.0536 103.151 37.0536L103.917 37.2068V36.4407C103.917 35.9554 103.662 35.5468 103.151 35.2148C101.925 36.1342 101.312 36.9514 101.312 37.6665ZM110.123 33.7974H110.736C111.783 33.7974 112.498 34.206 112.881 35.0233C112.881 36.1214 111.094 36.9897 107.518 37.6282C107.11 37.526 106.752 37.475 106.446 37.475C106.165 37.475 105.909 37.7304 105.679 38.2411C106.139 38.6497 106.395 38.854 106.446 38.854H107.518C108.208 38.854 110.711 38.2411 115.027 37.0153C115.231 37.1174 115.384 37.1685 115.486 37.1685V37.7814C114.133 38.9051 111.63 39.8245 107.978 40.5396H107.365C105.603 40.5396 104.377 39.7224 103.687 38.0879C103.687 36.6067 105.833 35.1765 110.123 33.7974ZM120.62 33.4526C121.028 33.4526 121.386 33.708 121.692 34.2188V34.6785C121.692 34.7806 120.773 35.4446 118.934 36.6705C116.942 38.9179 115.512 40.0416 114.644 40.0416C114.235 40.0416 113.877 39.4287 113.571 38.2028L113.724 37.4367C113.622 36.8748 113.571 36.4151 113.571 36.0576C113.775 35.5979 113.98 35.3425 114.184 35.2914H114.644C115.461 35.2914 115.869 35.317 115.869 35.368V35.8277H116.023C118.551 34.2443 120.083 33.4526 120.62 33.4526ZM128.473 19.7767C129.035 19.7767 129.392 19.981 129.545 20.3896C129.443 21.1047 127.911 24.6801 124.948 31.1159C124.335 32.0352 123.722 33.4143 123.11 35.2531L123.416 35.4063L124.489 35.2531C125.127 35.2531 125.587 35.5085 125.868 36.0193V36.3257C125.868 36.5811 124.642 36.9897 122.19 37.5516C121.45 41.3313 120.786 43.2211 120.198 43.2211H119.892C119.892 42.9658 119.687 42.8125 119.279 42.7615V42.3018C119.279 41.7654 119.738 39.9267 120.658 36.7854C120.454 36.4534 120.351 36.198 120.351 36.0193C121.373 35.5851 121.884 34.7168 121.884 33.4143C124.565 27.8214 126.557 23.2755 127.86 19.7767H128.473Z" fill="#CECECE"/>
</svg>
