<svg width="20" height="20" viewBox="0 0 20 20" fill="none" xmlns="http://www.w3.org/2000/svg">
<path opacity="0.4" d="M17.7077 7.62494C15.7827 4.59994 12.966 2.85828 9.99935 2.85828C8.51602 2.85828 7.07435 3.29161 5.75768 4.09994C4.44102 4.91661 3.25768 6.10828 2.29102 7.62494C1.45768 8.93328 1.45768 11.0583 2.29102 12.3666C4.21602 15.3999 7.03268 17.1333 9.99935 17.1333C11.4827 17.1333 12.9243 16.6999 14.241 15.8916C15.5577 15.0749 16.741 13.8833 17.7077 12.3666C18.541 11.0666 18.541 8.93328 17.7077 7.62494ZM9.99935 13.3666C8.13268 13.3666 6.63268 11.8583 6.63268 9.99994C6.63268 8.14161 8.13268 6.63328 9.99935 6.63328C11.866 6.63328 13.366 8.14161 13.366 9.99994C13.366 11.8583 11.866 13.3666 9.99935 13.3666Z" fill="#006633"/>
<path d="M10 7.6167C8.69167 7.6167 7.625 8.68337 7.625 10C7.625 11.3084 8.69167 12.375 10 12.375C11.3083 12.375 12.3833 11.3084 12.3833 10C12.3833 8.6917 11.3083 7.6167 10 7.6167Z" fill="#006633"/>
</svg>
