<svg width="24" height="24" viewBox="0 0 24 24" fill="none" xmlns="http://www.w3.org/2000/svg">
<path d="M21.7489 12.2243C21.7489 11.5615 21.694 10.8952 21.5771 10.2432H12.1953V13.9976H17.5678C17.3449 15.2085 16.6285 16.2796 15.5796 16.9603V19.3964H18.7849C20.6671 17.6983 21.7489 15.1905 21.7489 12.2243Z" fill="#4285F4"/>
<path d="M12.197 21.7501C14.8796 21.7501 17.1419 20.8867 18.7902 19.3964L15.5849 16.9603C14.6932 17.555 13.5419 17.8918 12.2006 17.8918C9.60575 17.8918 7.40559 16.1758 6.61616 13.8687H3.30859V16.38C4.9971 19.6722 8.43623 21.7501 12.197 21.7501Z" fill="#34A853"/>
<path d="M6.61196 13.8686C6.19532 12.6577 6.19532 11.3466 6.61196 10.1357V7.62439H3.30805C1.89732 10.3793 1.89732 13.625 3.30805 16.3799L6.61196 13.8686Z" fill="#FBBC04"/>
<path d="M12.197 6.10897C13.615 6.08747 14.9856 6.61051 16.0126 7.57061L18.8523 4.78704C17.0542 3.13194 14.6676 2.222 12.197 2.25066C8.43623 2.25066 4.9971 4.32848 3.30859 7.62435L6.6125 10.1357C7.39828 7.82497 9.6021 6.10897 12.197 6.10897Z" fill="#EA4335"/>
</svg>
