<svg width="49" height="52" viewBox="0 0 49 52" fill="none" xmlns="http://www.w3.org/2000/svg">
<path d="M20.2306 0.280363H20.4221C21.6224 0.51021 22.2226 0.803904 22.2226 1.16144V1.50622C21.6096 2.14468 19.1069 7.16301 14.7142 16.5612C11.8539 22.3074 8.17634 32.4334 3.68155 46.9394C3.32401 47.8077 3.14524 48.4078 3.14524 48.7398H3.33678C4.05186 48.0248 5.87787 46.5818 8.81481 44.411C11.7773 42.2147 13.7054 40.925 14.5993 40.5419C16.2593 39.4438 18.9153 38.4478 22.5673 37.5539C23.7677 37.273 24.7892 37.1325 25.632 37.1325H26.3598C27.5601 37.1325 28.2241 37.6178 28.3518 38.5882L27.624 39.0862H26.2066C25.7214 39.0096 25.1978 38.9713 24.636 38.9713C19.4772 38.9713 12.5051 42.866 3.71986 50.6552C2.87709 51.2426 2.22585 51.5363 1.76616 51.5363H1.61293C1 51.2298 0.693537 50.7574 0.693537 50.1189C0.693537 49.0208 2.02154 44.8835 4.67756 37.7072C8.6105 25.8828 12.0071 17.1614 14.8675 11.5429C17.0638 7.5844 18.8515 3.83023 20.2306 0.280363ZM23.9464 24.7974H24.5593C25.6064 24.7974 26.3215 25.206 26.7046 26.0233C26.7046 27.1214 24.9169 27.9897 21.3415 28.6282C20.9329 28.526 20.5753 28.475 20.2689 28.475C19.9879 28.475 19.7326 28.7304 19.5027 29.2411C19.9624 29.6497 20.2178 29.854 20.2689 29.854H21.3415C22.031 29.854 24.5338 29.2411 28.8498 28.0153C29.0541 28.1174 29.2074 28.1685 29.3095 28.1685V28.7814C27.956 29.9051 25.4532 30.8245 21.8012 31.5396H21.1883C19.4261 31.5396 18.2002 30.7224 17.5107 29.0879C17.5107 27.6067 19.6559 26.1765 23.9464 24.7974ZM36.7796 29.2794H35.5154C34.9791 29.2794 34.2257 28.858 33.2552 28.0153H33.0254C31.8251 29.2667 30.8674 29.8924 30.1523 29.8924H29.7309L28.0837 28.4367C28.0837 26.5213 28.9775 25.0783 30.7652 24.1079H31.608C34.2129 24.2866 35.5154 24.8357 35.5154 25.7551V26.5979H35.7453C35.9751 26.5979 36.3199 27.4917 36.7796 29.2794ZM42.8705 24.4526C43.2791 24.4526 43.6367 24.708 43.9431 25.2188V25.6785C43.9431 25.7806 43.0237 26.4446 41.185 27.6705C39.193 29.9179 37.7628 31.0416 36.8945 31.0416C36.4859 31.0416 36.1283 30.4287 35.8219 29.2028L35.9751 28.4367C35.8729 27.8748 35.8219 27.4151 35.8219 27.0576C36.0262 26.5979 36.2305 26.3425 36.4348 26.2914H36.8945C37.7117 26.2914 38.1203 26.317 38.1203 26.368V26.8277H38.2736C40.8019 25.2443 42.3342 24.4526 42.8705 24.4526ZM45.3988 24.4909C46.7013 24.4909 47.6207 25.2571 48.157 26.7894C48.157 26.9937 48.2592 27.5045 48.4635 28.3217C48.3613 28.7304 48.1059 28.9347 47.6973 28.9347C47.4164 28.9347 46.9056 28.1685 46.165 26.6362H45.8585C45.0924 26.6362 44.2241 27.5045 43.2536 29.2411C42.9471 29.3433 42.7939 29.4454 42.7939 29.5476C41.7724 29.2922 41.2616 28.8325 41.2616 28.1685C43.4834 25.819 44.8625 24.5931 45.3988 24.4909Z" fill="#CECECE"/>
</svg>
