<svg width="55" height="45" viewBox="0 0 55 45" fill="none" xmlns="http://www.w3.org/2000/svg">
<g clip-path="url(#clip0_242_12486)">
<path d="M50.8717 28.2699C44.0017 18.9299 36.7417 9.8899 29.1917 1.0799C28.6117 0.399899 29.6917 0.0298985 30.1917 -0.00010146C31.0817 -0.0501015 32.0317 0.339899 32.6117 0.999899C40.2817 9.7299 47.5117 18.8399 54.4017 28.1899C54.9417 28.9199 53.9417 29.2699 53.3717 29.2999C52.5217 29.3399 51.3917 28.9799 50.8717 28.2699Z" fill="black"/>
<path d="M40.6114 34.2199C36.4514 31.4999 32.2914 28.7799 28.1414 26.0499C27.6514 25.7299 27.0514 25.0199 27.8214 24.6299C28.5914 24.2399 29.7514 24.5499 30.4114 24.9699C34.5914 27.6799 38.7614 30.3899 42.9414 33.1099C43.4414 33.4399 44.0614 34.1699 43.2714 34.5699C42.4814 34.9699 41.2914 34.6599 40.6214 34.2199H40.6114Z" fill="black"/>
<path d="M30.9216 44.0202C21.3216 40.8602 11.7116 37.7202 2.11158 34.5302C1.58158 34.3602 0.311584 33.9002 0.521584 33.1202C0.721584 32.3802 2.11158 32.5302 2.60158 32.6902C12.2116 35.8202 21.8116 38.9802 31.4216 42.1402C31.9616 42.3202 33.2616 42.7802 33.0416 43.5802C32.8416 44.3302 31.4216 44.1802 30.9116 44.0102L30.9216 44.0202Z" fill="black"/>
</g>
<defs>
<clipPath id="clip0_242_12486">
<rect width="54.05" height="44.15" fill="white" transform="matrix(-1 0 0 1 54.5508 0)"/>
</clipPath>
</defs>
</svg>
