<svg width="144" height="70" viewBox="0 0 144 70" fill="none" xmlns="http://www.w3.org/2000/svg">
<path d="M18.0027 4.45357C18.539 4.70896 18.9476 5.14311 19.2286 5.75604V5.94758C14.9892 12.2045 12.6268 16.3801 12.1416 18.4743C9.58774 22.637 6.79127 30.2731 3.75217 41.3824C3.06263 44.9067 2.71786 47.6393 2.71786 49.5803V50.2315C2.71786 54.6497 4.1991 57.8165 7.16158 59.7318L8.38743 59.9234C11.9884 59.9234 19.1647 53.1557 29.9165 39.6202C31.9085 37.0408 34.8709 32.4439 38.8039 25.8294C42.0473 20.8749 44.1159 17.8486 45.0098 16.7504C45.0098 16.0098 45.5461 14.8605 46.6187 13.3027L46.4272 12.843C47.1933 11.6171 48.0233 9.75283 48.9172 7.25005H49.2619V7.47989C48.9555 9.88052 48.483 11.8215 47.8445 13.3027C47.8445 13.5581 46.8996 15.7927 45.0098 20.0066V20.6578C45.0098 20.7855 45.0736 20.8493 45.2013 20.8493C45.2013 21.0792 44.3075 22.088 42.5198 23.8757C36.1606 33.4016 32.0745 42.8253 30.2612 52.1469C29.5461 53.245 29.1886 54.0367 29.1886 54.522H28.9971L28.6523 54.2921C28.78 54.1644 28.8949 53.0918 28.9971 51.0743H28.8438C29.6866 46.3241 30.3889 43.4382 30.9508 42.4167V41.8038H30.4145C26.124 47.7032 21.6803 52.8109 17.0833 57.1269C17.0067 57.1269 15.2956 58.3528 11.9501 60.8045C10.3667 61.3663 9.3579 61.6472 8.92374 61.6472C5.11849 61.6472 2.46248 58.5571 0.9557 52.3767C0.776929 50.4358 0.649236 49.2866 0.572621 48.929C1.16001 45.8389 1.4537 44.1788 1.4537 43.949C1.4537 43.8213 1.38986 43.7575 1.26216 43.7575L3.44571 35.7511C3.44571 35.2914 3.72664 34.4997 4.28849 33.376C4.18633 33.0951 4.13525 32.878 4.13525 32.7248L9.99636 18.2444C9.99636 18.0656 11.0051 16.2013 13.0227 12.6515C13.6611 10.7105 15.3212 7.9779 18.0027 4.45357ZM47.2316 33.1845C47.5381 33.5165 47.6913 33.7719 47.6913 33.9506C47.6913 34.3082 46.6187 34.819 44.4735 35.483C43.0433 36.53 42.3282 37.3473 42.3282 37.9347C42.6602 38.139 42.9156 38.2411 43.0944 38.2411C43.4008 38.2411 44.7799 38.0879 47.2316 37.7814H47.6913C47.8956 37.807 47.9978 37.9091 47.9978 38.0879C47.9978 38.9051 46.4144 39.467 43.2476 39.7734C42.2771 39.7734 41.3067 39.1094 40.3362 37.7814V37.6282C40.3362 36.9387 41.2556 36.0193 43.0944 34.87C44.4479 33.7463 45.827 33.1845 47.2316 33.1845ZM51.4072 24.0289H52.0201C52.1478 24.0289 52.4032 24.2843 52.7863 24.7951V24.9483L48.649 38.1262V38.5859H48.9555C50.5133 36.7471 51.5349 35.8277 52.0201 35.8277C52.3521 35.8277 53.1693 36.3896 54.4718 37.5133C55.289 37.5133 55.6977 37.7687 55.6977 38.2794C55.5189 38.7391 55.2124 39.0967 54.7783 39.3521C54.5229 39.3521 53.6035 38.8924 52.0201 37.973C49.7982 40.297 48.5724 41.4718 48.3425 41.4973H47.4232C47.2955 41.4973 46.989 41.1398 46.5038 40.4247C46.5038 39.1988 48.0361 33.8357 51.1007 24.3354C51.1263 24.1311 51.2284 24.0289 51.4072 24.0289ZM59.0688 33.7974H59.6817C60.7288 33.7974 61.4438 34.206 61.8269 35.0233C61.8269 36.1214 60.0392 36.9897 56.4638 37.6282C56.0552 37.526 55.6977 37.475 55.3912 37.475C55.1103 37.475 54.8549 37.7304 54.625 38.2411C55.0847 38.6497 55.3401 38.854 55.3912 38.854H56.4638C57.1534 38.854 59.6561 38.2411 63.9722 37.0153C64.1765 37.1174 64.3297 37.1685 64.4319 37.1685V37.7814C63.0783 38.9051 60.5755 39.8245 56.9235 40.5396H56.3106C54.5484 40.5396 53.3226 39.7224 52.633 38.0879C52.633 36.6067 54.7783 35.1765 59.0688 33.7974ZM115.075 0.316319C118.395 1.21017 120.055 2.49987 120.055 4.18541V4.37695C120.055 8.56528 118.152 11.7321 114.347 13.8773C113.989 13.8773 113.811 13.9412 113.811 14.0688C112.789 13.8135 112.061 13.2516 111.627 12.3833C111.627 11.6938 112.661 10.9021 114.73 10.0082C116.441 9.8039 117.412 7.99066 117.642 4.56849V4.18541C117.642 3.4448 117.284 2.88295 116.569 2.49987C110.491 2.49987 102.625 7.05851 92.9712 16.1758C88.9106 20.1598 85.9098 23.7097 83.9689 26.8254C80.2658 32.3417 78.2355 37.0791 77.8779 41.0376C77.8779 44.9195 80.5722 47.5499 85.9609 48.929C87.1867 49.1844 88.2977 49.3121 89.2937 49.3121H90.7877C96.8659 49.3121 104.221 46.3113 112.853 40.3097C113.466 40.0033 113.772 39.8117 113.772 39.7351C114.258 39.9139 114.5 40.1054 114.5 40.3097C111.665 43.3744 107.681 46.0687 102.548 48.3927C98.0534 50.1038 94.6185 50.9593 92.2434 50.9593H90.2131L88.9106 50.7678V50.9593C84.9777 50.5507 81.3512 49.1333 78.0312 46.7072C76.5755 44.7407 75.8476 42.9019 75.8476 41.1908C75.8476 36.5173 78.6696 30.388 84.3137 22.803C86.7654 19.5341 90.1365 15.9715 94.4269 12.1151C98.411 8.43759 101.795 5.98589 104.579 4.76003C105.064 4.24926 107.094 3.20218 110.669 1.61879C110.95 1.28678 112.419 0.852629 115.075 0.316319ZM121.587 33.4526C121.996 33.4526 122.353 33.708 122.66 34.2188V34.6785C122.66 34.7806 121.74 35.4446 119.902 36.6705C117.91 38.9179 116.48 40.0416 115.611 40.0416C115.203 40.0416 114.845 39.4287 114.539 38.2028L114.692 37.4367C114.59 36.8748 114.539 36.4151 114.539 36.0576C114.743 35.5979 114.947 35.3425 115.152 35.2914H115.611C116.428 35.2914 116.837 35.317 116.837 35.368V35.8277H116.99C119.519 34.2443 121.051 33.4526 121.587 33.4526ZM126.835 33.1079H127.602L128.368 33.2611V33.874L128.521 34.7934C128.112 35.0743 126.989 38.2411 125.15 44.2938C124.026 48.6353 123.464 52.9769 123.464 57.3184V58.5443C123.464 63.1923 123.924 66.7166 124.843 69.1173C124.716 69.628 124.562 69.8834 124.384 69.8834H124.23C123.158 69.8834 122.392 66.257 121.932 59.004V56.3991C121.932 51.9553 123.005 45.7239 125.15 37.7048H124.843C123.898 38.4199 123.183 38.7774 122.698 38.7774C121.064 37.9857 120.246 36.7088 120.246 34.9466C120.451 34.487 120.655 34.2316 120.859 34.1805H121.779C122.392 34.538 122.698 34.9466 122.698 35.4063C122.698 35.4574 122.647 35.6617 122.545 36.0193C122.647 36.2236 122.698 36.3768 122.698 36.479H123.158C123.924 36.0193 125.15 34.8956 126.835 33.1079ZM131.547 33.0696H132.16C133.207 33.0696 134.076 34.1422 134.765 36.2874C134.765 37.7176 134.101 38.7391 132.773 39.3521C132.569 39.0967 132.467 38.8413 132.467 38.5859C131.471 38.8924 130.909 39.0456 130.781 39.0456C130.27 38.8668 130.015 38.6114 130.015 38.2794H129.862C127.41 41.3441 125.009 45.8899 122.66 51.917C121.945 54.0878 121.587 55.3647 121.587 55.7478V56.0543L121.74 56.8204C121.357 57.1269 121.051 57.2801 120.821 57.2801C120.106 57.0248 119.748 56.7183 119.748 56.3608C119.748 54.4454 121.74 49.5419 125.724 41.6505C128.483 37.5133 129.862 35.4191 129.862 35.368C130.577 34.0145 131.139 33.2483 131.547 33.0696ZM130.475 37.6665C131.164 37.2579 131.777 37.0536 132.313 37.0536L133.08 37.2068V36.4407C133.08 35.9554 132.824 35.5468 132.313 35.2148C131.088 36.1342 130.475 36.9514 130.475 37.6665ZM142.312 19.7767C142.874 19.7767 143.231 19.981 143.384 20.3896C143.282 21.1047 141.75 24.6801 138.787 31.1159C138.175 32.0352 137.562 33.4143 136.949 35.2531L137.255 35.4063L138.328 35.2531C138.966 35.2531 139.426 35.5085 139.707 36.0193V36.3257C139.707 36.5811 138.481 36.9897 136.029 37.5516C135.289 41.3313 134.625 43.2211 134.037 43.2211H133.731C133.731 42.9658 133.527 42.8125 133.118 42.7615V42.3018C133.118 41.7654 133.578 39.9267 134.497 36.7854C134.293 36.4534 134.191 36.198 134.191 36.0193C135.212 35.5851 135.723 34.7168 135.723 33.4143C138.404 27.8214 140.396 23.2755 141.699 19.7767H142.312Z" fill="#CECECE"/>
</svg>
