<svg width="21" height="20" viewBox="0 0 21 20" fill="none" xmlns="http://www.w3.org/2000/svg">
<path d="M13.8337 6.66647V10.8331C13.8337 11.4962 14.0971 12.1321 14.5659 12.6009C15.0347 13.0697 15.6706 13.3331 16.3337 13.3331C16.9967 13.3331 17.6326 13.0697 18.1014 12.6009C18.5703 12.1321 18.8337 11.4962 18.8337 10.8331V9.99981C18.8336 8.119 18.1972 6.29354 17.0281 4.82025C15.8589 3.34696 14.2258 2.3125 12.3942 1.88506C10.5626 1.45762 8.64028 1.66234 6.93979 2.46595C5.2393 3.26955 3.86066 4.62477 3.02805 6.31124C2.19543 7.99772 1.95781 9.91626 2.35381 11.7549C2.74981 13.5936 3.75615 15.2442 5.20919 16.4384C6.66224 17.6326 8.47653 18.3001 10.3571 18.3324C12.2376 18.3648 14.0738 17.76 15.567 16.6165M13.8337 9.99981C13.8337 11.8408 12.3413 13.3331 10.5003 13.3331C8.65939 13.3331 7.167 11.8408 7.167 9.99981C7.167 8.15886 8.65939 6.66647 10.5003 6.66647C12.3413 6.66647 13.8337 8.15886 13.8337 9.99981Z" stroke="#282D34" stroke-width="1.3" stroke-linecap="round" stroke-linejoin="round"/>
</svg>
