<svg width="10" height="10" viewBox="0 0 10 10" fill="none" xmlns="http://www.w3.org/2000/svg">
<path fill-rule="evenodd" clip-rule="evenodd" d="M0.423682 0.444182C0.573705 0.294205 0.777151 0.209953 0.989282 0.209953C1.20141 0.209953 1.40486 0.294205 1.55488 0.444182L4.98928 3.87858L8.42368 0.444182C8.49748 0.367774 8.58576 0.306828 8.68336 0.264901C8.78096 0.222973 8.88594 0.200904 8.99216 0.199981C9.09838 0.199058 9.20373 0.2193 9.30205 0.259524C9.40036 0.299749 9.48968 0.359151 9.5648 0.434266C9.63991 0.50938 9.69931 0.598701 9.73954 0.697019C9.77976 0.795336 9.80001 0.900679 9.79908 1.0069C9.79816 1.11313 9.77609 1.2181 9.73416 1.31571C9.69224 1.41331 9.63129 1.50158 9.55488 1.57538L6.12048 5.00978L9.55488 8.44418C9.70061 8.59507 9.78124 8.79715 9.77942 9.0069C9.7776 9.21666 9.69346 9.41731 9.54514 9.56564C9.39681 9.71396 9.19616 9.7981 8.9864 9.79992C8.77665 9.80174 8.57456 9.72111 8.42368 9.57538L4.98928 6.14098L1.55488 9.57538C1.404 9.72111 1.20192 9.80174 0.992161 9.79992C0.782404 9.7981 0.581754 9.71396 0.433427 9.56564C0.285101 9.41731 0.200966 9.21666 0.199143 9.0069C0.19732 8.79715 0.277956 8.59507 0.423682 8.44418L3.85808 5.00978L0.423682 1.57538C0.273706 1.42536 0.189453 1.22191 0.189453 1.00978C0.189453 0.797651 0.273706 0.594204 0.423682 0.444182Z" fill="black"/>
</svg>
