<svg width="10" height="11" viewBox="0 0 10 11" fill="none" xmlns="http://www.w3.org/2000/svg">
<path fill-rule="evenodd" clip-rule="evenodd" d="M0.315284 0.987944C0.465306 0.837967 0.668752 0.753715 0.880884 0.753715C1.09302 0.753715 1.29646 0.837967 1.44648 0.987944L4.88088 4.42234L8.31528 0.987944C8.38908 0.911536 8.47736 0.85059 8.57496 0.808663C8.67256 0.766736 8.77754 0.744667 8.88376 0.743744C8.98999 0.742821 9.09533 0.763062 9.19365 0.803286C9.29196 0.843511 9.38129 0.902914 9.4564 0.978028C9.53151 1.05314 9.59092 1.14246 9.63114 1.24078C9.67137 1.3391 9.69161 1.44444 9.69068 1.55067C9.68976 1.65689 9.66769 1.76186 9.62577 1.85947C9.58384 1.95707 9.52289 2.04535 9.44648 2.11914L6.01208 5.55354L9.44648 8.98795C9.59221 9.13883 9.67285 9.34091 9.67102 9.55067C9.6692 9.76042 9.58507 9.96107 9.43674 10.1094C9.28841 10.2577 9.08776 10.3419 8.87801 10.3437C8.66825 10.3455 8.46617 10.2649 8.31528 10.1191L4.88088 6.68474L1.44648 10.1191C1.2956 10.2649 1.09352 10.3455 0.883763 10.3437C0.674005 10.3419 0.473356 10.2577 0.325029 10.1094C0.176702 9.96107 0.0925671 9.76042 0.0907444 9.55067C0.0889217 9.34091 0.169558 9.13883 0.315284 8.98795L3.74968 5.55354L0.315284 2.11914C0.165307 1.96912 0.0810547 1.76568 0.0810547 1.55354C0.0810547 1.34141 0.165307 1.13797 0.315284 0.987944Z" fill="#F13562"/>
</svg>
