<svg width="16" height="17" viewBox="0 0 16 17" fill="none" xmlns="http://www.w3.org/2000/svg">
<path opacity="0.4" d="M14 15.6728H2C1.72667 15.6728 1.5 15.4461 1.5 15.1728C1.5 14.8995 1.72667 14.6728 2 14.6728H14C14.2733 14.6728 14.5 14.8995 14.5 15.1728C14.5 15.4461 14.2733 15.6728 14 15.6728Z" fill="#006633"/>
<path d="M3.73332 6.09277H2.66667C2.3 6.09277 2 6.39277 2 6.75944V12.5061C2 12.8728 2.3 13.1728 2.66667 13.1728H3.73332C4.09998 13.1728 4.39998 12.8728 4.39998 12.5061V6.75944C4.39998 6.38611 4.09998 6.09277 3.73332 6.09277Z" fill="#006633"/>
<path d="M8.53312 3.96606H7.46647C7.0998 3.96606 6.7998 4.26606 6.7998 4.63273V12.5061C6.7998 12.8727 7.0998 13.1727 7.46647 13.1727H8.53312C8.89979 13.1727 9.19979 12.8727 9.19979 12.5061V4.63273C9.19979 4.26606 8.89979 3.96606 8.53312 3.96606Z" fill="#006633"/>
<path d="M13.3334 1.83942H12.2668C11.9001 1.83942 11.6001 2.13942 11.6001 2.50608V12.5061C11.6001 12.8728 11.9001 13.1728 12.2668 13.1728H13.3334C13.7001 13.1728 14.0001 12.8728 14.0001 12.5061V2.50608C14.0001 2.13942 13.7001 1.83942 13.3334 1.83942Z" fill="#006633"/>
</svg>
