<svg width="16" height="17" viewBox="0 0 16 17" fill="none" xmlns="http://www.w3.org/2000/svg">
<path opacity="0.4" d="M14 15.6666H2C1.72667 15.6666 1.5 15.44 1.5 15.1666C1.5 14.8933 1.72667 14.6666 2 14.6666H14C14.2733 14.6666 14.5 14.8933 14.5 15.1666C14.5 15.44 14.2733 15.6666 14 15.6666Z" fill="black"/>
<path d="M3.73332 6.08667H2.66667C2.3 6.08667 2 6.38667 2 6.75334V12.5C2 12.8667 2.3 13.1667 2.66667 13.1667H3.73332C4.09998 13.1667 4.39998 12.8667 4.39998 12.5V6.75334C4.39998 6.38 4.09998 6.08667 3.73332 6.08667Z" fill="black"/>
<path d="M8.53312 3.96008H7.46647C7.0998 3.96008 6.7998 4.26008 6.7998 4.62675V12.5001C6.7998 12.8667 7.0998 13.1667 7.46647 13.1667H8.53312C8.89979 13.1667 9.19979 12.8667 9.19979 12.5001V4.62675C9.19979 4.26008 8.89979 3.96008 8.53312 3.96008Z" fill="black"/>
<path d="M13.3334 1.83337H12.2668C11.9001 1.83337 11.6001 2.13337 11.6001 2.50004V12.5C11.6001 12.8667 11.9001 13.1667 12.2668 13.1667H13.3334C13.7001 13.1667 14.0001 12.8667 14.0001 12.5V2.50004C14.0001 2.13337 13.7001 1.83337 13.3334 1.83337Z" fill="black"/>
</svg>
