<svg width="25" height="25" viewBox="0 0 25 25" fill="none" xmlns="http://www.w3.org/2000/svg">
<path opacity="0.4" d="M21.1079 22.5376H3.10791C2.69791 22.5376 2.35791 22.1976 2.35791 21.7876C2.35791 21.3776 2.69791 21.0376 3.10791 21.0376H21.1079C21.5179 21.0376 21.8579 21.3776 21.8579 21.7876C21.8579 22.1976 21.5179 22.5376 21.1079 22.5376Z" fill="#006633"/>
<path opacity="0.4" d="M19.128 4.01763C17.188 2.07763 15.288 2.02763 13.298 4.01763L12.088 5.22763C11.988 5.32763 11.948 5.48763 11.988 5.62763C12.748 8.27763 14.868 10.3976 17.518 11.1576C17.558 11.1676 17.598 11.1776 17.638 11.1776C17.748 11.1776 17.848 11.1376 17.928 11.0576L19.128 9.84763C20.118 8.86763 20.598 7.91763 20.598 6.95763C20.608 5.96763 20.128 5.00763 19.128 4.01763Z" fill="#006633"/>
<path d="M15.7177 12.0676C15.4277 11.9276 15.1477 11.7876 14.8777 11.6276C14.6577 11.4976 14.4477 11.3576 14.2377 11.2076C14.0677 11.0976 13.8677 10.9376 13.6777 10.7776C13.6577 10.7676 13.5877 10.7076 13.5077 10.6276C13.1777 10.3476 12.8077 9.98765 12.4777 9.58765C12.4477 9.56765 12.3977 9.49765 12.3277 9.40765C12.2277 9.28765 12.0577 9.08765 11.9077 8.85765C11.7877 8.70765 11.6477 8.48765 11.5177 8.26765C11.3577 7.99765 11.2177 7.72765 11.0777 7.44765C10.9377 7.14765 10.8277 6.85765 10.7277 6.58765L4.44774 12.8676C4.31774 12.9976 4.19774 13.2476 4.16774 13.4176L3.62774 17.2476C3.52774 17.9276 3.71774 18.5676 4.13774 18.9976C4.49774 19.3476 4.99774 19.5376 5.53774 19.5376C5.65774 19.5376 5.77774 19.5276 5.89774 19.5076L9.73774 18.9676C9.91774 18.9376 10.1677 18.8176 10.2877 18.6876L16.5677 12.4076C16.2877 12.3076 16.0177 12.1976 15.7177 12.0676Z" fill="#006633"/>
</svg>
