<svg width="25" height="25" viewBox="0 0 25 25" fill="none" xmlns="http://www.w3.org/2000/svg">
<path opacity="0.4" d="M21.3457 9.68753C19.0357 6.05753 15.6557 3.96753 12.0957 3.96753C10.3157 3.96753 8.5857 4.48753 7.0057 5.45753C5.4257 6.43753 4.0057 7.86753 2.8457 9.68753C1.8457 11.2575 1.8457 13.8075 2.8457 15.3775C5.1557 19.0175 8.5357 21.0975 12.0957 21.0975C13.8757 21.0975 15.6057 20.5775 17.1857 19.6075C18.7657 18.6275 20.1857 17.1975 21.3457 15.3775C22.3457 13.8175 22.3457 11.2575 21.3457 9.68753ZM12.0957 16.5775C9.8557 16.5775 8.0557 14.7675 8.0557 12.5375C8.0557 10.3075 9.8557 8.49753 12.0957 8.49753C14.3357 8.49753 16.1357 10.3075 16.1357 12.5375C16.1357 14.7675 14.3357 16.5775 12.0957 16.5775Z" fill="black"/>
<path d="M12.0956 9.67749C10.5256 9.67749 9.24561 10.9575 9.24561 12.5375C9.24561 14.1075 10.5256 15.3875 12.0956 15.3875C13.6656 15.3875 14.9556 14.1075 14.9556 12.5375C14.9556 10.9675 13.6656 9.67749 12.0956 9.67749Z" fill="black"/>
</svg>
