<svg width="16" height="17" viewBox="0 0 16 17" fill="none" xmlns="http://www.w3.org/2000/svg">
<path opacity="0.4" d="M6 5.30614V11.6995C6 13.8395 7.33333 15.1728 9.46667 15.1728H11.1933C13.3267 15.1728 14.66 13.8395 14.66 11.7061V5.30614C14.6667 3.17281 13.3333 1.83948 11.2 1.83948H9.46667C7.33333 1.83948 6 3.17281 6 5.30614Z" fill="#F13562"/>
<path d="M3.71329 5.91941L1.47996 8.15274C1.28663 8.34608 1.28663 8.66608 1.47996 8.85941L3.71329 11.0927C3.90663 11.2861 4.22663 11.2861 4.41996 11.0927C4.61329 10.8994 4.61329 10.5794 4.41996 10.3861L3.03996 9.00608H10.1666C10.44 9.00608 10.6666 8.77941 10.6666 8.50608C10.6666 8.23274 10.44 8.00608 10.1666 8.00608H3.03996L4.41996 6.62608C4.51996 6.52608 4.56663 6.39941 4.56663 6.27274C4.56663 6.14608 4.51996 6.01274 4.41996 5.91941C4.22663 5.71941 3.91329 5.71941 3.71329 5.91941Z" fill="#F13562"/>
</svg>
