<svg width="17" height="17" viewBox="0 0 17 17" fill="none" xmlns="http://www.w3.org/2000/svg">
<path opacity="0.4" d="M12.2256 5.71035C12.0989 5.71035 11.9723 5.66368 11.8723 5.56368C11.6789 5.37035 11.6789 5.05035 11.8723 4.85702L13.2389 3.49035C12.0656 2.49035 10.5523 1.87701 8.89225 1.87701C5.21225 1.87701 2.22559 4.86368 2.22559 8.54368C2.22559 12.2237 5.21225 15.2103 8.89225 15.2103C12.5723 15.2103 15.5589 12.2237 15.5589 8.54368C15.5589 6.88368 14.9456 5.37035 13.9456 4.19702L12.5789 5.56368C12.4789 5.66368 12.3523 5.71035 12.2256 5.71035Z" fill="#80711B"/>
<path d="M10.0589 8.4237L9.39225 8.19037V6.71037H9.44558C9.78558 6.71037 10.0589 7.01037 10.0589 7.37703C10.0589 7.65037 10.2856 7.87703 10.5589 7.87703C10.8323 7.87703 11.0589 7.65037 11.0589 7.37703C11.0589 6.45703 10.3389 5.71037 9.44558 5.71037H9.39225V5.5437C9.39225 5.27037 9.16559 5.0437 8.89225 5.0437C8.61892 5.0437 8.39225 5.27037 8.39225 5.5437V5.71037H8.19226C7.38559 5.71037 6.72559 6.39037 6.72559 7.23037C6.72559 8.2037 7.29225 8.51704 7.72559 8.67037L8.39225 8.9037V10.3837H8.33893C7.99893 10.3837 7.72559 10.0837 7.72559 9.71704C7.72559 9.4437 7.49892 9.21704 7.22559 9.21704C6.95225 9.21704 6.72559 9.4437 6.72559 9.71704C6.72559 10.637 7.44559 11.3837 8.33893 11.3837H8.39225V11.5504C8.39225 11.8237 8.61892 12.0504 8.89225 12.0504C9.16559 12.0504 9.39225 11.8237 9.39225 11.5504V11.3837H9.59224C10.3989 11.3837 11.0589 10.7037 11.0589 9.8637C11.0589 8.8837 10.4923 8.57037 10.0589 8.4237ZM8.05225 7.71704C7.82558 7.63704 7.72559 7.59037 7.72559 7.2237C7.72559 6.93703 7.93893 6.7037 8.19226 6.7037H8.39225V7.83037L8.05225 7.71704ZM9.59224 10.377H9.39225V9.25037L9.73226 9.37037C9.95893 9.45037 10.0589 9.49704 10.0589 9.8637C10.0589 10.1437 9.84558 10.377 9.59224 10.377Z" fill="#80711B"/>
<path d="M16.0186 1.6837C15.9653 1.5637 15.8719 1.4637 15.7453 1.41036C15.6853 1.3837 15.6186 1.37036 15.5519 1.37036H12.8853C12.6119 1.37036 12.3853 1.59703 12.3853 1.87036C12.3853 2.14369 12.6119 2.37036 12.8853 2.37036H14.3453L13.2319 3.4837C13.4853 3.7037 13.7186 3.93703 13.9386 4.19036L15.0519 3.07703V4.5437C15.0519 4.81703 15.2786 5.0437 15.5519 5.0437C15.8253 5.0437 16.0519 4.81703 16.0519 4.5437V1.87703C16.0586 1.81036 16.0453 1.75036 16.0186 1.6837Z" fill="#80711B"/>
</svg>
