<svg width="24" height="25" viewBox="0 0 24 25" fill="none" xmlns="http://www.w3.org/2000/svg">
<path opacity="0.4" d="M19.3399 14.9961L18.3399 13.3361C18.1299 12.9661 17.9399 12.2661 17.9399 11.8561V9.32613C17.9399 6.06613 15.2899 3.40613 12.0199 3.40613C8.74994 3.40613 6.09994 6.06613 6.09994 9.32613V11.8561C6.09994 12.2661 5.90994 12.9661 5.69994 13.3261L4.68994 14.9961C4.28994 15.6661 4.19994 16.4061 4.44994 17.0861C4.68994 17.7561 5.25994 18.2761 5.99994 18.5261C7.93994 19.1861 9.97994 19.5061 12.0199 19.5061C14.0599 19.5061 16.0999 19.1861 18.0399 18.5361C18.7399 18.3061 19.2799 17.7761 19.5399 17.0861C19.7999 16.3961 19.7299 15.6361 19.3399 14.9961Z" fill="#6B7588"/>
<path d="M14.2498 3.8261C13.5598 3.5561 12.8098 3.4061 12.0198 3.4061C11.2398 3.4061 10.4898 3.5461 9.7998 3.8261C10.2298 3.0161 11.0798 2.5061 12.0198 2.5061C12.9698 2.5061 13.8098 3.0161 14.2498 3.8261Z" fill="#6B7588"/>
<path d="M14.8302 20.5161C14.4102 21.6761 13.3002 22.5061 12.0002 22.5061C11.2102 22.5061 10.4302 22.1861 9.88018 21.6161C9.56018 21.3161 9.32018 20.9161 9.18018 20.5061C9.31018 20.5261 9.44018 20.5361 9.58018 20.5561C9.81018 20.5861 10.0502 20.6161 10.2902 20.6361C10.8602 20.6861 11.4402 20.7161 12.0202 20.7161C12.5902 20.7161 13.1602 20.6861 13.7202 20.6361C13.9302 20.6161 14.1402 20.6061 14.3402 20.5761C14.5002 20.5561 14.6602 20.5361 14.8302 20.5161Z" fill="#6B7588"/>
<path opacity="0.4" d="M19.3399 14.9961L18.3399 13.3361C18.1299 12.9661 17.9399 12.2661 17.9399 11.8561V9.32613C17.9399 6.06613 15.2899 3.40613 12.0199 3.40613C8.74994 3.40613 6.09994 6.06613 6.09994 9.32613V11.8561C6.09994 12.2661 5.90994 12.9661 5.69994 13.3261L4.68994 14.9961C4.28994 15.6661 4.19994 16.4061 4.44994 17.0861C4.68994 17.7561 5.25994 18.2761 5.99994 18.5261C7.93994 19.1861 9.97994 19.5061 12.0199 19.5061C14.0599 19.5061 16.0999 19.1861 18.0399 18.5361C18.7399 18.3061 19.2799 17.7761 19.5399 17.0861C19.7999 16.3961 19.7299 15.6361 19.3399 14.9961Z" fill="#6B7588"/>
<path d="M14.2498 3.8261C13.5598 3.5561 12.8098 3.4061 12.0198 3.4061C11.2398 3.4061 10.4898 3.5461 9.7998 3.8261C10.2298 3.0161 11.0798 2.5061 12.0198 2.5061C12.9698 2.5061 13.8098 3.0161 14.2498 3.8261Z" fill="#6B7588"/>
<path d="M14.8302 20.5161C14.4102 21.6761 13.3002 22.5061 12.0002 22.5061C11.2102 22.5061 10.4302 22.1861 9.88018 21.6161C9.56018 21.3161 9.32018 20.9161 9.18018 20.5061C9.31018 20.5261 9.44018 20.5361 9.58018 20.5561C9.81018 20.5861 10.0502 20.6161 10.2902 20.6361C10.8602 20.6861 11.4402 20.7161 12.0202 20.7161C12.5902 20.7161 13.1602 20.6861 13.7202 20.6361C13.9302 20.6161 14.1402 20.6061 14.3402 20.5761C14.5002 20.5561 14.6602 20.5361 14.8302 20.5161Z" fill="#6B7588"/>
</svg>
