<svg width="24" height="25" viewBox="0 0 24 25" fill="none" xmlns="http://www.w3.org/2000/svg">
<path d="M7 10.1733C6.80222 10.1733 6.60888 10.232 6.44443 10.3419C6.27998 10.4518 6.15181 10.6079 6.07612 10.7907C6.00043 10.9734 5.98063 11.1744 6.01921 11.3684C6.0578 11.5624 6.15304 11.7406 6.29289 11.8804C6.43275 12.0203 6.61093 12.1155 6.80491 12.1541C6.99889 12.1927 7.19996 12.1729 7.38268 12.0972C7.56541 12.0215 7.72159 11.8934 7.83147 11.7289C7.94135 11.5645 8 11.3711 8 11.1733C8 10.9081 7.89464 10.6538 7.70711 10.4662C7.51957 10.2787 7.26522 10.1733 7 10.1733ZM19 6.17334H18V3.17334C18 2.90812 17.8946 2.65377 17.7071 2.46623C17.5196 2.2787 17.2652 2.17334 17 2.17334H7C6.73478 2.17334 6.48043 2.2787 6.29289 2.46623C6.10536 2.65377 6 2.90812 6 3.17334V6.17334H5C4.20435 6.17334 3.44129 6.48941 2.87868 7.05202C2.31607 7.61463 2 8.37769 2 9.17334V15.1733C2 15.969 2.31607 16.7321 2.87868 17.2947C3.44129 17.8573 4.20435 18.1733 5 18.1733H6V21.1733C6 21.4386 6.10536 21.6929 6.29289 21.8804C6.48043 22.068 6.73478 22.1733 7 22.1733H17C17.2652 22.1733 17.5196 22.068 17.7071 21.8804C17.8946 21.6929 18 21.4386 18 21.1733V18.1733H19C19.7956 18.1733 20.5587 17.8573 21.1213 17.2947C21.6839 16.7321 22 15.969 22 15.1733V9.17334C22 8.37769 21.6839 7.61463 21.1213 7.05202C20.5587 6.48941 19.7956 6.17334 19 6.17334ZM8 4.17334H16V6.17334H8V4.17334ZM16 20.1733H8V16.1733H16V20.1733ZM20 15.1733C20 15.4386 19.8946 15.6929 19.7071 15.8804C19.5196 16.068 19.2652 16.1733 19 16.1733H18V15.1733C18 14.9081 17.8946 14.6538 17.7071 14.4662C17.5196 14.2787 17.2652 14.1733 17 14.1733H7C6.73478 14.1733 6.48043 14.2787 6.29289 14.4662C6.10536 14.6538 6 14.9081 6 15.1733V16.1733H5C4.73478 16.1733 4.48043 16.068 4.29289 15.8804C4.10536 15.6929 4 15.4386 4 15.1733V9.17334C4 8.90812 4.10536 8.65377 4.29289 8.46623C4.48043 8.2787 4.73478 8.17334 5 8.17334H19C19.2652 8.17334 19.5196 8.2787 19.7071 8.46623C19.8946 8.65377 20 8.90812 20 9.17334V15.1733Z" fill="black"/>
</svg>
