<svg width="16" height="17" viewBox="0 0 16 17" fill="none" xmlns="http://www.w3.org/2000/svg">
<path opacity="0.4" d="M11.3335 5.66659C11.2068 5.66659 11.0802 5.61992 10.9802 5.51992C10.7868 5.32658 10.7868 5.00659 10.9802 4.81325L12.3468 3.44658C11.1735 2.44658 9.66016 1.83325 8.00016 1.83325C4.32016 1.83325 1.3335 4.81992 1.3335 8.49992C1.3335 12.1799 4.32016 15.1666 8.00016 15.1666C11.6802 15.1666 14.6668 12.1799 14.6668 8.49992C14.6668 6.83992 14.0535 5.32659 13.0535 4.15325L11.6868 5.51992C11.5868 5.61992 11.4602 5.66659 11.3335 5.66659Z" fill="#006633"/>
<path d="M9.16683 8.38L8.50016 8.14667V6.66667H8.55349C8.89349 6.66667 9.16683 6.96667 9.16683 7.33333C9.16683 7.60667 9.3935 7.83333 9.66683 7.83333C9.94016 7.83333 10.1668 7.60667 10.1668 7.33333C10.1668 6.41333 9.44682 5.66667 8.55349 5.66667H8.50016V5.5C8.50016 5.22667 8.2735 5 8.00016 5C7.72683 5 7.50016 5.22667 7.50016 5.5V5.66667H7.30017C6.4935 5.66667 5.8335 6.34667 5.8335 7.18667C5.8335 8.16 6.40016 8.47334 6.8335 8.62667L7.50016 8.86V10.34H7.44684C7.10684 10.34 6.8335 10.04 6.8335 9.67334C6.8335 9.4 6.60683 9.17334 6.3335 9.17334C6.06016 9.17334 5.8335 9.4 5.8335 9.67334C5.8335 10.5933 6.55351 11.34 7.44684 11.34H7.50016V11.5067C7.50016 11.78 7.72683 12.0067 8.00016 12.0067C8.2735 12.0067 8.50016 11.78 8.50016 11.5067V11.34H8.70015C9.50682 11.34 10.1668 10.66 10.1668 9.82C10.1668 8.84 9.60016 8.52667 9.16683 8.38ZM7.16016 7.67333C6.93349 7.59333 6.8335 7.54666 6.8335 7.18C6.8335 6.89333 7.04684 6.66 7.30017 6.66H7.50016V7.78667L7.16016 7.67333ZM8.70015 10.3333H8.50016V9.20667L8.84017 9.32667C9.06684 9.40667 9.16683 9.45334 9.16683 9.82C9.16683 10.1 8.95349 10.3333 8.70015 10.3333Z" fill="#006633"/>
<path d="M15.1265 1.63999C15.0732 1.51999 14.9798 1.42 14.8532 1.36666C14.7932 1.34 14.7265 1.32666 14.6598 1.32666H11.9932C11.7198 1.32666 11.4932 1.55333 11.4932 1.82666C11.4932 2.09999 11.7198 2.32666 11.9932 2.32666H13.4532L12.3398 3.44C12.5932 3.66 12.8265 3.89333 13.0465 4.14666L14.1598 3.03333V4.49999C14.1598 4.77333 14.3865 4.99999 14.6598 4.99999C14.9332 4.99999 15.1598 4.77333 15.1598 4.49999V1.83333C15.1665 1.76666 15.1532 1.70666 15.1265 1.63999Z" fill="#006633"/>
</svg>
