<svg width="16" height="17" viewBox="0 0 16 17" fill="none" xmlns="http://www.w3.org/2000/svg">
<path opacity="0.4" d="M11.3335 5.67275C11.2068 5.67275 11.0802 5.62608 10.9802 5.52608C10.7868 5.33275 10.7868 5.01275 10.9802 4.81942L12.3468 3.45275C11.1735 2.45275 9.66016 1.83942 8.00016 1.83942C4.32016 1.83942 1.3335 4.82608 1.3335 8.50608C1.3335 12.1861 4.32016 15.1728 8.00016 15.1728C11.6802 15.1728 14.6668 12.1861 14.6668 8.50608C14.6668 6.84608 14.0535 5.33275 13.0535 4.15942L11.6868 5.52608C11.5868 5.62608 11.4602 5.67275 11.3335 5.67275Z" fill="black"/>
<path d="M9.16683 8.3861L8.50016 8.15277V6.67277H8.55349C8.89349 6.67277 9.16683 6.97277 9.16683 7.33944C9.16683 7.61277 9.3935 7.83944 9.66683 7.83944C9.94016 7.83944 10.1668 7.61277 10.1668 7.33944C10.1668 6.41944 9.44682 5.67277 8.55349 5.67277H8.50016V5.5061C8.50016 5.23277 8.2735 5.0061 8.00016 5.0061C7.72683 5.0061 7.50016 5.23277 7.50016 5.5061V5.67277H7.30017C6.4935 5.67277 5.8335 6.35277 5.8335 7.19277C5.8335 8.1661 6.40016 8.47944 6.8335 8.63277L7.50016 8.8661V10.3461H7.44684C7.10684 10.3461 6.8335 10.0461 6.8335 9.67944C6.8335 9.40611 6.60683 9.17944 6.3335 9.17944C6.06016 9.17944 5.8335 9.40611 5.8335 9.67944C5.8335 10.5994 6.55351 11.3461 7.44684 11.3461H7.50016V11.5128C7.50016 11.7861 7.72683 12.0128 8.00016 12.0128C8.2735 12.0128 8.50016 11.7861 8.50016 11.5128V11.3461H8.70015C9.50682 11.3461 10.1668 10.6661 10.1668 9.82611C10.1668 8.84611 9.60016 8.53277 9.16683 8.3861ZM7.16016 7.67944C6.93349 7.59944 6.8335 7.55277 6.8335 7.1861C6.8335 6.89943 7.04684 6.6661 7.30017 6.6661H7.50016V7.79277L7.16016 7.67944ZM8.70015 10.3394H8.50016V9.21277L8.84017 9.33277C9.06684 9.41277 9.16683 9.45944 9.16683 9.82611C9.16683 10.1061 8.95349 10.3394 8.70015 10.3394Z" fill="black"/>
<path d="M15.1265 1.6461C15.0732 1.5261 14.9798 1.4261 14.8532 1.37277C14.7932 1.3461 14.7265 1.33276 14.6598 1.33276H11.9932C11.7198 1.33276 11.4932 1.55943 11.4932 1.83276C11.4932 2.1061 11.7198 2.33276 11.9932 2.33276H13.4532L12.3398 3.4461C12.5932 3.6661 12.8265 3.89943 13.0465 4.15277L14.1598 3.03943V4.5061C14.1598 4.77943 14.3865 5.0061 14.6598 5.0061C14.9332 5.0061 15.1598 4.77943 15.1598 4.5061V1.83943C15.1665 1.77277 15.1532 1.71276 15.1265 1.6461Z" fill="black"/>
</svg>
