<svg width="16" height="17" viewBox="0 0 16 17" fill="none" xmlns="http://www.w3.org/2000/svg">
<path opacity="0.4" d="M13.5736 8.98672C13.3269 8.98672 13.1202 8.80005 13.0936 8.55338C12.9336 7.08672 12.1469 5.76672 10.9336 4.92672C10.7136 4.77338 10.6602 4.47338 10.8136 4.25338C10.9669 4.03338 11.2669 3.98005 11.4869 4.13338C12.9336 5.14005 13.8669 6.71338 14.0602 8.45338C14.0869 8.72005 13.8936 8.96005 13.6269 8.98672C13.6069 8.98672 13.5936 8.98672 13.5736 8.98672Z" fill="#006633"/>
<path opacity="0.4" d="M2.4932 9.01989C2.47987 9.01989 2.45987 9.01989 2.44653 9.01989C2.17987 8.99322 1.98653 8.75322 2.0132 8.48656C2.1932 6.74656 3.1132 5.17322 4.54653 4.15989C4.75987 4.00656 5.06653 4.05989 5.21987 4.27322C5.3732 4.49322 5.31987 4.79322 5.10653 4.94656C3.90653 5.79989 3.12653 7.11989 2.97987 8.57989C2.9532 8.83322 2.73987 9.01989 2.4932 9.01989Z" fill="#006633"/>
<path opacity="0.4" d="M10.6601 14.5666C9.84007 14.9599 8.96007 15.1599 8.04007 15.1599C7.08007 15.1599 6.16673 14.9466 5.3134 14.5132C5.0734 14.3999 4.98007 14.1066 5.10007 13.8666C5.2134 13.6266 5.50673 13.5332 5.74673 13.6466C6.16673 13.8599 6.6134 14.0066 7.06673 14.0932C7.68007 14.2132 8.30673 14.2199 8.92007 14.1132C9.3734 14.0332 9.82007 13.8932 10.2334 13.6932C10.4801 13.5799 10.7734 13.6732 10.8801 13.9199C11.0001 14.1599 10.9067 14.4532 10.6601 14.5666Z" fill="#006633"/>
<path d="M8.03332 1.84009C6.99999 1.84009 6.15332 2.68009 6.15332 3.72009C6.15332 4.76009 6.99332 5.60009 8.03332 5.60009C9.07332 5.60009 9.91332 4.76009 9.91332 3.72009C9.91332 2.68009 9.07332 1.84009 8.03332 1.84009Z" fill="#006633"/>
<path d="M3.36682 9.74658C2.33348 9.74658 1.48682 10.5866 1.48682 11.6266C1.48682 12.6666 2.32682 13.5066 3.36682 13.5066C4.40682 13.5066 5.24682 12.6666 5.24682 11.6266C5.24682 10.5866 4.40015 9.74658 3.36682 9.74658Z" fill="#006633"/>
<path d="M12.6334 9.74658C11.6001 9.74658 10.7534 10.5866 10.7534 11.6266C10.7534 12.6666 11.5934 13.5066 12.6334 13.5066C13.6734 13.5066 14.5134 12.6666 14.5134 11.6266C14.5134 10.5866 13.6734 9.74658 12.6334 9.74658Z" fill="#006633"/>
</svg>
