<svg width="16" height="17" viewBox="0 0 16 17" fill="none" xmlns="http://www.w3.org/2000/svg">
<path opacity="0.4" d="M13.5736 8.99276C13.3269 8.99276 13.1202 8.80609 13.0936 8.55942C12.9336 7.09276 12.1469 5.77276 10.9336 4.93276C10.7136 4.77942 10.6602 4.47942 10.8136 4.25942C10.9669 4.03942 11.2669 3.98609 11.4869 4.13942C12.9336 5.14609 13.8669 6.71942 14.0602 8.45942C14.0869 8.72609 13.8936 8.96609 13.6269 8.99276C13.6069 8.99276 13.5936 8.99276 13.5736 8.99276Z" fill="#006633"/>
<path opacity="0.4" d="M2.4932 9.02612C2.47987 9.02612 2.45987 9.02612 2.44653 9.02612C2.17987 8.99945 1.98653 8.75945 2.0132 8.49278C2.1932 6.75278 3.1132 5.17945 4.54653 4.16612C4.75987 4.01278 5.06653 4.06612 5.21987 4.27945C5.3732 4.49945 5.31987 4.79945 5.10653 4.95278C3.90653 5.80612 3.12653 7.12612 2.97987 8.58612C2.9532 8.83945 2.73987 9.02612 2.4932 9.02612Z" fill="black"/>
<path opacity="0.4" d="M10.6601 14.5728C9.84007 14.9661 8.96007 15.1661 8.04007 15.1661C7.08007 15.1661 6.16673 14.9528 5.3134 14.5195C5.0734 14.4061 4.98007 14.1128 5.10007 13.8728C5.2134 13.6328 5.50673 13.5395 5.74673 13.6528C6.16673 13.8661 6.6134 14.0128 7.06673 14.0995C7.68007 14.2195 8.30673 14.2261 8.92007 14.1195C9.3734 14.0395 9.82007 13.8995 10.2334 13.6995C10.4801 13.5861 10.7734 13.6795 10.8801 13.9261C11.0001 14.1661 10.9067 14.4595 10.6601 14.5728Z" fill="black"/>
<path d="M8.03332 1.84613C6.99999 1.84613 6.15332 2.68613 6.15332 3.72613C6.15332 4.76613 6.99332 5.60613 8.03332 5.60613C9.07332 5.60613 9.91332 4.76613 9.91332 3.72613C9.91332 2.68613 9.07332 1.84613 8.03332 1.84613Z" fill="black"/>
<path d="M3.36682 9.75275C2.33348 9.75275 1.48682 10.5927 1.48682 11.6327C1.48682 12.6727 2.32682 13.5127 3.36682 13.5127C4.40682 13.5127 5.24682 12.6727 5.24682 11.6327C5.24682 10.5927 4.40015 9.75275 3.36682 9.75275Z" fill="black"/>
<path d="M12.6334 9.75275C11.6001 9.75275 10.7534 10.5927 10.7534 11.6327C10.7534 12.6727 11.5934 13.5127 12.6334 13.5127C13.6734 13.5127 14.5134 12.6727 14.5134 11.6327C14.5134 10.5927 13.6734 9.75275 12.6334 9.75275Z" fill="#006633"/>
</svg>
