<svg width="16" height="17" viewBox="0 0 16 17" fill="none" xmlns="http://www.w3.org/2000/svg">
<path opacity="0.4" d="M1.3335 9.09277V7.91944C1.3335 7.2261 1.90016 6.65277 2.60016 6.65277C3.80683 6.65277 4.30016 5.79944 3.6935 4.75277C3.34683 4.15277 3.5535 3.37277 4.16016 3.0261L5.3135 2.3661C5.84016 2.05277 6.52016 2.23944 6.8335 2.7661L6.90683 2.89277C7.50683 3.93944 8.4935 3.93944 9.10016 2.89277L9.1735 2.7661C9.48683 2.23944 10.1668 2.05277 10.6935 2.3661L11.8468 3.0261C12.4535 3.37277 12.6602 4.15277 12.3135 4.75277C11.7068 5.79944 12.2002 6.65277 13.4068 6.65277C14.1002 6.65277 14.6735 7.21944 14.6735 7.91944V9.09277C14.6735 9.7861 14.1068 10.3594 13.4068 10.3594C12.2002 10.3594 11.7068 11.2128 12.3135 12.2594C12.6602 12.8661 12.4535 13.6394 11.8468 13.9861L10.6935 14.6461C10.1668 14.9594 9.48683 14.7728 9.1735 14.2461L9.10016 14.1194C8.50016 13.0728 7.5135 13.0728 6.90683 14.1194L6.8335 14.2461C6.52016 14.7728 5.84016 14.9594 5.3135 14.6461L4.16016 13.9861C3.5535 13.6394 3.34683 12.8594 3.6935 12.2594C4.30016 11.2128 3.80683 10.3594 2.60016 10.3594C1.90016 10.3594 1.3335 9.7861 1.3335 9.09277Z" fill="black"/>
<path d="M8.00016 10.6727C9.19678 10.6727 10.1668 9.7027 10.1668 8.50608C10.1668 7.30947 9.19678 6.33942 8.00016 6.33942C6.80355 6.33942 5.8335 7.30947 5.8335 8.50608C5.8335 9.7027 6.80355 10.6727 8.00016 10.6727Z" fill="black"/>
</svg>
