<svg width="16" height="17" viewBox="0 0 16 17" fill="none" xmlns="http://www.w3.org/2000/svg">
<path opacity="0.4" d="M1.3335 8.82653V7.6532C1.3335 6.95987 1.90016 6.38653 2.60016 6.38653C3.80683 6.38653 4.30016 5.5332 3.6935 4.48653C3.34683 3.88653 3.5535 3.10653 4.16016 2.75987L5.3135 2.09987C5.84016 1.78653 6.52016 1.9732 6.8335 2.49987L6.90683 2.62653C7.50683 3.6732 8.4935 3.6732 9.10016 2.62653L9.1735 2.49987C9.48683 1.9732 10.1668 1.78653 10.6935 2.09987L11.8468 2.75987C12.4535 3.10653 12.6602 3.88653 12.3135 4.48653C11.7068 5.5332 12.2002 6.38653 13.4068 6.38653C14.1002 6.38653 14.6735 6.9532 14.6735 7.6532V8.82653C14.6735 9.51987 14.1068 10.0932 13.4068 10.0932C12.2002 10.0932 11.7068 10.9465 12.3135 11.9932C12.6602 12.5999 12.4535 13.3732 11.8468 13.7199L10.6935 14.3799C10.1668 14.6932 9.48683 14.5065 9.1735 13.9799L9.10016 13.8532C8.50016 12.8065 7.5135 12.8065 6.90683 13.8532L6.8335 13.9799C6.52016 14.5065 5.84016 14.6932 5.3135 14.3799L4.16016 13.7199C3.5535 13.3732 3.34683 12.5932 3.6935 11.9932C4.30016 10.9465 3.80683 10.0932 2.60016 10.0932C1.90016 10.0932 1.3335 9.51987 1.3335 8.82653Z" fill="black"/>
<path d="M8.00016 10.4066C9.19678 10.4066 10.1668 9.43653 10.1668 8.23991C10.1668 7.04329 9.19678 6.07324 8.00016 6.07324C6.80355 6.07324 5.8335 7.04329 5.8335 8.23991C5.8335 9.43653 6.80355 10.4066 8.00016 10.4066Z" fill="#006633"/>
</svg>
