<svg width="17" height="17" viewBox="0 0 17 17" fill="none" xmlns="http://www.w3.org/2000/svg">
<path opacity="0.4" d="M14.4656 9.03036C14.219 9.03036 14.0123 8.84369 13.9856 8.59702C13.8256 7.13036 13.039 5.81036 11.8256 4.97036C11.6056 4.81702 11.5523 4.51702 11.7056 4.29702C11.859 4.07702 12.159 4.02369 12.379 4.17702C13.8256 5.18369 14.759 6.75702 14.9523 8.49702C14.979 8.76369 14.7856 9.00369 14.519 9.03036C14.499 9.03036 14.4856 9.03036 14.4656 9.03036Z" fill="#9E52F7"/>
<path opacity="0.4" d="M3.38529 9.06371C3.37196 9.06371 3.35196 9.06371 3.33862 9.06371C3.07196 9.03705 2.87862 8.79705 2.90529 8.53038C3.08529 6.79038 4.00529 5.21705 5.43862 4.20371C5.65196 4.05038 5.95862 4.10371 6.11196 4.31705C6.26529 4.53705 6.21196 4.83705 5.99862 4.99038C4.79862 5.84371 4.01862 7.16371 3.87196 8.62371C3.84529 8.87705 3.63196 9.06371 3.38529 9.06371Z" fill="#9E52F7"/>
<path opacity="0.4" d="M11.5522 14.6104C10.7322 15.0037 9.85216 15.2037 8.93216 15.2037C7.97216 15.2037 7.05882 14.9904 6.20549 14.5571C5.96549 14.4437 5.87216 14.1504 5.99216 13.9104C6.10549 13.6704 6.39882 13.5771 6.63882 13.6904C7.05882 13.9037 7.50549 14.0504 7.95882 14.1371C8.57216 14.2571 9.19882 14.2637 9.81216 14.1571C10.2655 14.0771 10.7122 13.9371 11.1255 13.7371C11.3722 13.6237 11.6655 13.7171 11.7722 13.9637C11.8922 14.2037 11.7988 14.4971 11.5522 14.6104Z" fill="#9E52F7"/>
<path d="M8.92541 1.88373C7.89208 1.88373 7.04541 2.72373 7.04541 3.76373C7.04541 4.80373 7.88541 5.64373 8.92541 5.64373C9.96541 5.64373 10.8054 4.80373 10.8054 3.76373C10.8054 2.72373 9.96541 1.88373 8.92541 1.88373Z" fill="#9E52F7"/>
<path d="M4.25891 9.79034C3.22557 9.79034 2.37891 10.6303 2.37891 11.6703C2.37891 12.7103 3.21891 13.5503 4.25891 13.5503C5.29891 13.5503 6.13891 12.7103 6.13891 11.6703C6.13891 10.6303 5.29224 9.79034 4.25891 9.79034Z" fill="#9E52F7"/>
<path d="M13.5255 9.79034C12.4922 9.79034 11.6455 10.6303 11.6455 11.6703C11.6455 12.7103 12.4855 13.5503 13.5255 13.5503C14.5655 13.5503 15.4055 12.7103 15.4055 11.6703C15.4055 10.6303 14.5655 9.79034 13.5255 9.79034Z" fill="#9E52F7"/>
</svg>
