<svg width="17" height="17" viewBox="0 0 17 17" fill="none" xmlns="http://www.w3.org/2000/svg">
<path opacity="0.4" d="M15.5589 8.54372V11.8771C15.5589 13.8771 14.2256 15.2104 12.2256 15.2104H5.55892C3.55892 15.2104 2.22559 13.8771 2.22559 11.8771V8.54372C2.22559 6.73039 3.31892 5.46372 5.01892 5.25039C5.19225 5.22372 5.37225 5.21039 5.55892 5.21039H12.2256C12.3989 5.21039 12.5656 5.21705 12.7256 5.24371C14.4456 5.44371 15.5589 6.71705 15.5589 8.54372Z" fill="#006633"/>
<path d="M12.7252 5.24368C12.5652 5.21701 12.3986 5.21035 12.2252 5.21035H5.55855C5.37189 5.21035 5.19189 5.22369 5.01855 5.25035C5.11189 5.06369 5.24522 4.89035 5.40522 4.73035L7.57189 2.55701C8.48522 1.65035 9.96522 1.65035 10.8786 2.55701L12.0452 3.73703C12.4719 4.15703 12.6986 4.69035 12.7252 5.24368Z" fill="#006633"/>
<path d="M15.5589 8.87701H13.5589C12.8256 8.87701 12.2256 9.47701 12.2256 10.2103C12.2256 10.9437 12.8256 11.5437 13.5589 11.5437H15.5589" fill="#006633"/>
</svg>
