<svg width="25" height="25" viewBox="0 0 25 25" fill="none" xmlns="http://www.w3.org/2000/svg">
<g clip-path="url(#clip0_523_13629)">
<path d="M22.3457 1.10018H2.8457C2.40326 1.09568 1.9771 1.26688 1.66074 1.57621C1.34437 1.88555 1.16364 2.30775 1.1582 2.75018V22.3289C1.16463 22.7707 1.34579 23.192 1.66205 23.5005C1.97831 23.809 2.4039 23.9797 2.8457 23.9752H22.3457C22.7882 23.9787 23.214 23.8069 23.5302 23.4974C23.8464 23.1879 24.0273 22.7658 24.0332 22.3233V2.74456C24.0253 2.30343 23.8436 1.88323 23.5276 1.57532C23.2116 1.26741 22.7869 1.09666 22.3457 1.10018Z" fill="#0076B2"/>
<path d="M4.54539 9.67432H7.94102V20.5999H4.54539V9.67432ZM6.24414 4.23682C6.6336 4.23682 7.01431 4.35233 7.33811 4.56874C7.66191 4.78515 7.91425 5.09274 8.06321 5.45259C8.21216 5.81244 8.25104 6.20839 8.17492 6.59034C8.09881 6.97229 7.91112 7.32309 7.63559 7.59835C7.36007 7.87361 7.0091 8.06096 6.62707 8.13672C6.24505 8.21247 5.84914 8.17321 5.48943 8.02392C5.12972 7.87462 4.82238 7.62199 4.60627 7.29798C4.39017 6.97397 4.27502 6.59315 4.27539 6.20369C4.27589 5.68187 4.48353 5.18159 4.85269 4.81279C5.22185 4.44398 5.72232 4.23682 6.24414 4.23682ZM10.071 9.67432H13.326V11.1743H13.371C13.8248 10.3156 14.931 9.40994 16.5829 9.40994C20.0216 9.40244 20.6591 11.6656 20.6591 14.5999V20.5999H17.2635V15.2843C17.2635 14.0187 17.241 12.3893 15.4991 12.3893C13.7573 12.3893 13.461 13.7693 13.461 15.2018V20.5999H10.071V9.67432Z" fill="white"/>
</g>
<defs>
<clipPath id="clip0_523_13629">
<rect width="24" height="24" fill="white" transform="translate(0.595703 0.537598)"/>
</clipPath>
</defs>
</svg>
