<svg width="22" height="25" viewBox="0 0 22 25" fill="none" xmlns="http://www.w3.org/2000/svg">
<g clip-path="url(#clip0_523_13622)">
<path d="M15.9779 9.17926C17.5237 10.2837 19.4173 10.9335 21.4626 10.9335V6.99997C21.0755 7.00005 20.6894 6.95967 20.3107 6.87948V9.97572C18.2657 9.97572 16.3722 9.32599 14.8261 8.22165V16.2489C14.8261 20.2646 11.5691 23.5197 7.55166 23.5197C6.05266 23.5197 4.65933 23.0667 3.50195 22.2899C4.82295 23.6399 6.66515 24.4774 8.70317 24.4774C12.7209 24.4774 15.9781 21.2223 15.9781 17.2064V9.17926H15.9779ZM17.3989 5.21081C16.6088 4.34822 16.0901 3.23346 15.9779 2.00102V1.49512H14.8864C15.1612 3.06149 16.0984 4.3997 17.3989 5.21081ZM6.04297 19.2084C5.60161 18.6301 5.36303 17.9225 5.3641 17.1949C5.3641 15.3583 6.85384 13.8692 8.69183 13.8692C9.0343 13.869 9.37476 13.9216 9.70124 14.025V10.0035C9.31972 9.95131 8.93473 9.92905 8.5499 9.93724V13.0673C8.22327 12.9638 7.88263 12.9113 7.53999 12.9116C5.70209 12.9116 4.21244 14.4006 4.21244 16.2374C4.21244 17.5362 4.95701 18.6607 6.04297 19.2084Z" fill="#FF004F"/>
<path d="M14.8271 8.22157C16.3733 9.3259 18.2666 9.97564 20.3117 9.97564V6.87939C19.1702 6.63633 18.1596 6.04014 17.3998 5.21081C16.0992 4.39961 15.1622 3.06141 14.8874 1.49512H12.0204V17.2063C12.0139 19.0379 10.5267 20.5209 8.69267 20.5209C7.612 20.5209 6.65184 20.0061 6.04381 19.2084C4.95802 18.6607 4.21336 17.5361 4.21336 16.2375C4.21336 14.4008 5.70301 12.9117 7.54092 12.9117C7.89305 12.9117 8.23245 12.9665 8.55082 13.0674V9.93732C4.60389 10.0188 1.42969 13.2421 1.42969 17.2063C1.42969 19.1853 2.22012 20.9792 3.50304 22.29C4.66042 23.0667 6.05366 23.5198 7.55275 23.5198C11.5703 23.5198 14.8272 20.2645 14.8272 16.2489L14.8271 8.22157Z" fill="black"/>
<path d="M20.3111 6.87939V6.04237C19.2817 6.04393 18.2726 5.75579 17.3992 5.21089C18.1723 6.05686 19.1904 6.64024 20.3111 6.87956M14.8867 1.49511C14.8605 1.34545 14.8404 1.19479 14.8265 1.0435V0.537598H10.8678V16.2489C10.8615 18.0804 9.37434 19.5634 7.54024 19.5634C7.02029 19.5642 6.50745 19.4426 6.04314 19.2086C6.65116 20.0061 7.61133 20.5209 8.69199 20.5209C10.5259 20.5209 12.0133 19.038 12.0197 17.2064V1.4952L14.8867 1.49511ZM8.55039 9.93732V9.04609C8.2196 9.00088 7.88611 8.97826 7.55224 8.9784C3.53431 8.9784 0.277344 12.2336 0.277344 16.2489C0.277344 18.7663 1.55737 20.9849 3.50253 22.29C2.21961 20.9792 1.42918 19.1852 1.42918 17.2063C1.42918 13.2422 4.6033 10.0188 8.55039 9.93732Z" fill="#00F2EA"/>
</g>
<defs>
<clipPath id="clip0_523_13622">
<rect width="21.1862" height="24" fill="white" transform="translate(0.277344 0.537598)"/>
</clipPath>
</defs>
</svg>
