<svg width="35" height="25" viewBox="0 0 35 25" fill="none" xmlns="http://www.w3.org/2000/svg">
<g clip-path="url(#clip0_523_13626)">
<path d="M33.8424 4.28093C33.6466 3.5574 33.2647 2.89779 32.7347 2.36777C32.2047 1.83775 31.5451 1.45581 30.8216 1.26C28.1728 0.537598 17.5123 0.537598 17.5123 0.537598C17.5123 0.537598 6.85118 0.559464 4.20238 1.28186C3.47885 1.47769 2.81924 1.85965 2.28924 2.38969C1.75924 2.91974 1.37735 3.57938 1.18158 4.30293C0.380383 9.00933 0.0695828 16.1808 1.20358 20.6989C1.39937 21.4225 1.78127 22.0821 2.31127 22.6121C2.84127 23.1421 3.50087 23.524 4.22438 23.7199C6.87318 24.4423 17.534 24.4423 17.534 24.4423C17.534 24.4423 28.1947 24.4423 30.8433 23.7199C31.5669 23.5241 32.2265 23.1421 32.7565 22.6121C33.2865 22.0821 33.6685 21.4225 33.8643 20.6989C34.7093 15.9859 34.9697 8.8188 33.8424 4.28093Z" fill="#FF0000"/>
<path d="M14.1191 17.6122L22.9629 12.4898L14.1191 7.36743V17.6122Z" fill="white"/>
</g>
<defs>
<clipPath id="clip0_523_13626">
<rect width="34.1333" height="24" fill="white" transform="translate(0.462891 0.537598)"/>
</clipPath>
</defs>
</svg>
