<svg width="25" height="25" viewBox="0 0 25 25" fill="none" xmlns="http://www.w3.org/2000/svg">
<g clip-path="url(#clip0_523_13617)">
<path d="M24.4023 12.5376C24.4023 5.91022 19.0297 0.537598 12.4023 0.537598C5.77497 0.537598 0.402344 5.91022 0.402344 12.5376C0.402344 18.5271 4.79059 23.4916 10.5273 24.3918V16.0063H7.48047V12.5376H10.5273V9.89385C10.5273 6.88635 12.3189 5.2251 15.06 5.2251C16.3728 5.2251 17.7461 5.45947 17.7461 5.45947V8.4126H16.233C14.7423 8.4126 14.2773 9.33763 14.2773 10.2867V12.5376H17.6055L17.0734 16.0063H14.2773V24.3918C20.0141 23.4916 24.4023 18.5272 24.4023 12.5376Z" fill="#1877F2"/>
<path d="M17.0734 16.0063L17.6055 12.5376H14.2773V10.2867C14.2773 9.33753 14.7422 8.4126 16.233 8.4126H17.7461V5.45947C17.7461 5.45947 16.3728 5.2251 15.0599 5.2251C12.3189 5.2251 10.5273 6.88635 10.5273 9.89385V12.5376H7.48047V16.0063H10.5273V24.3918C11.1476 24.489 11.7745 24.5378 12.4023 24.5376C13.0302 24.5378 13.6571 24.489 14.2773 24.3918V16.0063H17.0734Z" fill="white"/>
</g>
<defs>
<clipPath id="clip0_523_13617">
<rect width="24" height="24" fill="white" transform="translate(0.402344 0.537598)"/>
</clipPath>
</defs>
</svg>
