<svg width="32" height="25" viewBox="0 0 32 25" fill="none" xmlns="http://www.w3.org/2000/svg">
<g clip-path="url(#clip0_523_13620)">
<path d="M26.5558 2.53925C24.5311 1.59188 22.389 0.918727 20.1863 0.537598C19.9119 1.03364 19.5914 1.70081 19.3703 2.23159C16.9954 1.87448 14.6423 1.87448 12.311 2.23159C12.0901 1.70093 11.7623 1.03364 11.4854 0.537598C9.28052 0.918903 7.13664 1.59377 5.11092 2.54419C1.07988 8.63573 -0.0129009 14.5758 0.533431 20.4318C3.20708 22.4284 5.79811 23.6413 8.34549 24.435C8.97858 23.5644 9.53821 22.6426 10.0186 21.6793C9.104 21.3311 8.22227 20.902 7.38392 20.3971C7.60454 20.2335 7.81996 20.0631 8.02987 19.8861C13.1099 22.2622 18.6297 22.2622 23.6492 19.8861C23.86 20.0619 24.0753 20.2323 24.295 20.3971C23.4553 20.9033 22.5719 21.3333 21.6555 21.6818C22.1386 22.6491 22.6973 23.5717 23.3286 24.4374C25.8784 23.6438 28.4718 22.4309 31.1455 20.4318C31.7866 13.6433 30.0504 7.75774 26.5558 2.53925ZM10.7108 16.8305C9.18573 16.8305 7.93508 15.4067 7.93508 13.6731C7.93508 11.9394 9.15908 10.5133 10.7108 10.5133C12.2626 10.5133 13.5131 11.9369 13.4864 13.6731C13.4888 15.4067 12.2626 16.8305 10.7108 16.8305ZM20.9682 16.8305C19.4431 16.8305 18.1926 15.4067 18.1926 13.6731C18.1926 11.9394 19.4165 10.5133 20.9682 10.5133C22.52 10.5133 23.7705 11.9369 23.7438 13.6731C23.7438 15.4067 22.52 16.8305 20.9682 16.8305Z" fill="#5865F2"/>
</g>
<defs>
<clipPath id="clip0_523_13620">
<rect width="30.8744" height="24" fill="white" transform="translate(0.402344 0.537598)"/>
</clipPath>
</defs>
</svg>
