<svg width="24" height="25" viewBox="0 0 24 25" fill="none" xmlns="http://www.w3.org/2000/svg">
<path opacity="0.4" d="M16.1898 2.5H7.81976C4.17976 2.5 2.00977 4.67 2.00977 8.31V16.68C2.00977 20.32 4.17976 22.49 7.81976 22.49H16.1898C19.8298 22.49 21.9998 20.32 21.9998 16.68V8.31C21.9998 4.67 19.8298 2.5 16.1898 2.5Z" fill="#6B7588"/>
<path d="M15.6191 7.59947L13.3292 6.83952C12.7492 6.63952 12.1592 6.71947 11.7092 7.03947C11.2592 7.35947 11.0092 7.89951 11.0092 8.50951V9.11949V13.2995C10.6092 13.0795 10.1591 12.9495 9.66913 12.9495C8.12913 12.9495 6.86914 14.2095 6.86914 15.7495C6.86914 17.2895 8.12913 18.5495 9.66913 18.5495C11.2091 18.5495 12.4691 17.2895 12.4691 15.7495V11.1995C12.4791 11.2095 12.4992 11.2095 12.5092 11.2195L14.7991 11.9795C15.0091 12.0495 15.2291 12.0895 15.4391 12.0895C15.7991 12.0895 16.1391 11.9895 16.4191 11.7795C16.8691 11.4595 17.1191 10.9195 17.1191 10.3095V9.69951C17.1191 8.78951 16.4791 7.88947 15.6191 7.59947ZM9.66913 17.0895C8.92913 17.0895 8.33917 16.4895 8.33917 15.7595C8.33917 15.0195 8.93913 14.4195 9.66913 14.4195C10.4091 14.4195 11.0092 15.0195 11.0092 15.7595C11.0092 16.4895 10.4091 17.0895 9.66913 17.0895Z" fill="#6B7588"/>
</svg>
