<svg width="24" height="25" viewBox="0 0 24 25" fill="none" xmlns="http://www.w3.org/2000/svg">
<path opacity="0.4" d="M20.5 7.5V15.5H6.35C4.78 15.5 3.5 16.78 3.5 18.35V7.5C3.5 3.5 4.5 2.5 8.5 2.5H15.5C19.5 2.5 20.5 3.5 20.5 7.5Z" fill="#6B7588"/>
<path d="M20.5 15.5V19C20.5 20.93 18.93 22.5 17 22.5H7C5.07 22.5 3.5 20.93 3.5 19V18.35C3.5 16.78 4.78 15.5 6.35 15.5H20.5Z" fill="#6B7588"/>
<path d="M16 8.25H8C7.59 8.25 7.25 7.91 7.25 7.5C7.25 7.09 7.59 6.75 8 6.75H16C16.41 6.75 16.75 7.09 16.75 7.5C16.75 7.91 16.41 8.25 16 8.25Z" fill="#6B7588"/>
<path d="M13 11.75H8C7.59 11.75 7.25 11.41 7.25 11C7.25 10.59 7.59 10.25 8 10.25H13C13.41 10.25 13.75 10.59 13.75 11C13.75 11.41 13.41 11.75 13 11.75Z" fill="#6B7588"/>
</svg>
