<svg width="24" height="25" viewBox="0 0 24 25" fill="none" xmlns="http://www.w3.org/2000/svg">
<path opacity="0.4" d="M16.19 2.5H7.81C4.17 2.5 2 4.67 2 8.31V16.68C2 20.33 4.17 22.5 7.81 22.5H16.18C19.82 22.5 21.99 20.33 21.99 16.69V8.31C22 4.67 19.83 2.5 16.19 2.5Z" fill="#6B7588"/>
<path d="M15.4991 10.6301C16.5374 10.6301 17.3791 9.78841 17.3791 8.75012C17.3791 7.71182 16.5374 6.87012 15.4991 6.87012C14.4608 6.87012 13.6191 7.71182 13.6191 8.75012C13.6191 9.78841 14.4608 10.6301 15.4991 10.6301Z" fill="#6B7588"/>
<path d="M8.49914 10.6301C9.53744 10.6301 10.3791 9.78841 10.3791 8.75012C10.3791 7.71182 9.53744 6.87012 8.49914 6.87012C7.46085 6.87012 6.61914 7.71182 6.61914 8.75012C6.61914 9.78841 7.46085 10.6301 8.49914 10.6301Z" fill="#6B7588"/>
<path d="M15.6009 13.4199H8.40086C7.70086 13.4199 7.13086 13.9899 7.13086 14.6999C7.13086 17.3899 9.32086 19.5799 12.0109 19.5799C14.7009 19.5799 16.8909 17.3899 16.8909 14.6999C16.8809 13.9999 16.3009 13.4199 15.6009 13.4199Z" fill="#6B7588"/>
</svg>
