<svg width="105" height="105" viewBox="0 0 105 105" fill="none" xmlns="http://www.w3.org/2000/svg">
<path opacity="0.4" d="M83.4305 86.7128C82.5992 86.7128 81.768 86.4064 81.1117 85.7502C79.843 84.4814 79.843 82.3814 81.1117 81.1127C96.9055 65.3189 96.9055 39.6379 81.1117 23.8879C79.843 22.6191 79.843 20.5191 81.1117 19.2504C82.3805 17.9816 84.4805 17.9816 85.7492 19.2504C104.08 37.5816 104.08 67.4189 85.7492 85.7502C85.093 86.4064 84.2617 86.7128 83.4305 86.7128Z" fill="#FAFAFC"/>
<path opacity="0.4" d="M21.5711 86.7128C20.7398 86.7128 19.9086 86.4064 19.2523 85.7502C0.921093 67.4189 0.921093 37.5816 19.2523 19.2504C20.5211 17.9816 22.6211 17.9816 23.8898 19.2504C25.1586 20.5191 25.1586 22.6191 23.8898 23.8879C8.09608 39.6816 8.09608 65.3627 23.8898 81.1127C25.1586 82.3814 25.1586 84.4814 23.8898 85.7502C23.2336 86.4064 22.4023 86.7128 21.5711 86.7128Z" fill="#FAFAFC"/>
<path opacity="0.4" d="M52.5035 99.3559C47.0347 99.3121 41.8285 98.437 36.9723 96.7307C35.266 96.1182 34.3472 94.2371 34.9597 92.5309C35.5722 90.8246 37.4098 89.9058 39.1598 90.5183C43.3598 91.962 47.8223 92.7496 52.5473 92.7496C57.2285 92.7496 61.7347 91.962 65.891 90.5183C67.5972 89.9495 69.4784 90.8246 70.0909 92.5309C70.7034 94.2371 69.7847 96.1182 68.0785 96.7307C63.1785 98.437 57.9722 99.3559 52.5035 99.3559Z" fill="#FAFAFC"/>
<path opacity="0.4" d="M66.9416 14.6125C66.5916 14.6125 66.1979 14.5686 65.8479 14.4373C61.6479 12.9936 57.1417 12.2061 52.4604 12.2061C47.7792 12.2061 43.3167 12.9936 39.1167 14.4373C37.4105 15.0061 35.5292 14.1313 34.9167 12.425C34.3042 10.7188 35.223 8.83742 36.9292 8.22492C41.7855 6.51867 47.0354 5.64355 52.4604 5.64355C57.8854 5.64355 63.1355 6.51867 67.9917 8.22492C69.698 8.83742 70.6167 10.7188 70.0042 12.425C69.5667 13.7813 68.2979 14.6125 66.9416 14.6125Z" fill="#FAFAFC"/>
<path d="M38.2383 52.5001V45.1939C38.2383 36.0939 44.6696 32.3751 52.5446 36.9251L58.8883 40.6002L65.2321 44.2751C73.1071 48.8251 73.1071 56.2627 65.2321 60.8127L58.8883 64.4876L52.5446 68.1627C44.6696 72.7127 38.2383 68.9939 38.2383 59.8939V52.5001Z" fill="#FAFAFC"/>
</svg>
