<svg width="24" height="25" viewBox="0 0 24 25" fill="none" xmlns="http://www.w3.org/2000/svg">
<path opacity="0.4" d="M5.73937 16.5C5.84937 16.01 5.64937 15.31 5.29937 14.96L2.86937 12.53C2.10937 11.77 1.80937 10.96 2.02937 10.26C2.25937 9.56 2.96937 9.08 4.02937 8.9L7.14937 8.38C7.59937 8.3 8.14937 7.9 8.35937 7.49L10.0794 4.04C10.5794 3.05 11.2594 2.5 11.9994 2.5C12.7394 2.5 13.4194 3.05 13.9194 4.04L15.6394 7.49C15.7694 7.75 16.0394 8 16.3294 8.17L5.55937 18.94C5.41937 19.08 5.17937 18.95 5.21937 18.75L5.73937 16.5Z" fill="#6B7588"/>
<path d="M18.7008 14.9599C18.3408 15.3199 18.1408 16.0099 18.2608 16.4999L18.9508 19.5099C19.2408 20.7599 19.0608 21.6999 18.4408 22.1499C18.1908 22.3299 17.8908 22.4199 17.5408 22.4199C17.0308 22.4199 16.4308 22.2299 15.7708 21.8399L12.8408 20.0999C12.3808 19.8299 11.6208 19.8299 11.1608 20.0999L8.23078 21.8399C7.12078 22.4899 6.17078 22.5999 5.56078 22.1499C5.33078 21.9799 5.16078 21.7499 5.05078 21.4499L17.2108 9.2899C17.6708 8.8299 18.3208 8.6199 18.9508 8.7299L19.9608 8.8999C21.0208 9.0799 21.7308 9.5599 21.9608 10.2599C22.1808 10.9599 21.8808 11.7699 21.1208 12.5299L18.7008 14.9599Z" fill="#6B7588"/>
</svg>
