<svg width="24" height="25" viewBox="0 0 24 25" fill="none" xmlns="http://www.w3.org/2000/svg">
<path d="M12 14.25C11.59 14.25 11.25 13.91 11.25 13.5V8.5C11.25 8.09 11.59 7.75 12 7.75C12.41 7.75 12.75 8.09 12.75 8.5V13.5C12.75 13.91 12.41 14.25 12 14.25Z" fill="#6B7588"/>
<path d="M14.8906 3.95H9.11062C8.71062 3.95 8.39062 3.63 8.39062 3.23C8.39062 2.83 8.71062 2.5 9.11062 2.5H14.8906C15.2906 2.5 15.6106 2.82 15.6106 3.22C15.6106 3.62 15.2906 3.95 14.8906 3.95Z" fill="#6B7588"/>
<path opacity="0.4" d="M15.0001 20.4702V17.5302C15.0001 16.2602 15.7601 15.5002 17.0301 15.5002H19.9701C20.1601 15.5002 20.3301 15.5202 20.5001 15.5602C20.6101 15.0002 20.6701 14.4202 20.6701 13.8302C20.6701 9.05016 16.7801 5.16016 12.0001 5.16016C7.22008 5.16016 3.33008 9.05016 3.33008 13.8302C3.33008 18.6102 7.22008 22.5002 12.0001 22.5002C13.2101 22.5002 14.3601 22.2502 15.4101 21.8002C15.1501 21.4602 15.0001 21.0202 15.0001 20.4702Z" fill="#6B7588"/>
<path d="M19.97 15.5H17.03C15.76 15.5 15 16.26 15 17.53V20.47C15 21.74 15.76 22.5 17.03 22.5H19.97C21.24 22.5 22 21.74 22 20.47V17.53C22 16.26 21.24 15.5 19.97 15.5ZM19.69 19.96L18.51 20.64C18.27 20.78 18.03 20.85 17.81 20.85C17.64 20.85 17.49 20.81 17.35 20.73C17.03 20.54 16.85 20.17 16.85 19.68V18.32C16.85 17.83 17.03 17.46 17.35 17.27C17.67 17.08 18.08 17.12 18.51 17.36L19.69 18.04C20.11 18.29 20.35 18.63 20.35 19C20.35 19.37 20.12 19.71 19.69 19.96Z" fill="#6B7588"/>
</svg>
