<svg width="24" height="25" viewBox="0 0 24 25" fill="none" xmlns="http://www.w3.org/2000/svg">
<path opacity="0.4" d="M21.0801 9.08003V15.92C21.0801 17.04 20.4802 18.08 19.5102 18.65L13.5702 22.08C12.6002 22.64 11.4002 22.64 10.4202 22.08L4.48016 18.65C3.51016 18.09 2.91016 17.05 2.91016 15.92V9.08003C2.91016 7.96003 3.51016 6.91999 4.48016 6.34999L10.4202 2.92C11.3902 2.36 12.5902 2.36 13.5702 2.92L19.5102 6.34999C20.4802 6.91999 21.0801 7.95003 21.0801 9.08003Z" fill="#6B7588"/>
<path d="M9.75 12.4999V11.2999C9.75 9.75989 10.84 9.12993 12.17 9.89993L13.21 10.4999L14.25 11.0999C15.58 11.8699 15.58 13.1299 14.25 13.8999L13.21 14.4999L12.17 15.0999C10.84 15.8699 9.75 15.2399 9.75 13.6999V12.4999Z" fill="#6B7588"/>
</svg>
