<svg width="24" height="25" viewBox="0 0 24 25" fill="none" xmlns="http://www.w3.org/2000/svg">
<path opacity="0.4" d="M16.19 2.5H7.81C4.17 2.5 2 4.67 2 8.31V16.68C2 20.33 4.17 22.5 7.81 22.5H16.18C19.82 22.5 21.99 20.33 21.99 16.69V8.31C22 4.67 19.83 2.5 16.19 2.5Z" fill="#6B7588"/>
<path d="M9.09961 12.5005V11.0205C9.09961 9.11048 10.4496 8.34048 12.0996 9.29048L13.3796 10.0305L14.6596 10.7705C16.3096 11.7205 16.3096 13.2805 14.6596 14.2305L13.3796 14.9705L12.0996 15.7105C10.4496 16.6605 9.09961 15.8805 9.09961 13.9805V12.5005Z" fill="#6B7588"/>
</svg>
