<svg width="24" height="25" viewBox="0 0 24 25" fill="none" xmlns="http://www.w3.org/2000/svg">
<path opacity="0.4" d="M9 7.66533V17.2553C9 20.4653 11 22.4653 14.2 22.4653H16.79C19.99 22.4653 21.99 20.4653 21.99 17.2653V7.66533C22 4.46533 20 2.46533 16.8 2.46533H14.2C11 2.46533 9 4.46533 9 7.66533Z" fill="#006633"/>
<path d="M5.56994 8.58535L2.21994 11.9354C1.92994 12.2254 1.92994 12.7054 2.21994 12.9954L5.56994 16.3454C5.85994 16.6354 6.33994 16.6354 6.62994 16.3454C6.91994 16.0554 6.91994 15.5754 6.62994 15.2854L4.55994 13.2154H15.2499C15.6599 13.2154 15.9999 12.8754 15.9999 12.4654C15.9999 12.0554 15.6599 11.7154 15.2499 11.7154H4.55994L6.62994 9.64535C6.77994 9.49535 6.84994 9.30535 6.84994 9.11535C6.84994 8.92535 6.77994 8.72535 6.62994 8.58535C6.33994 8.28535 5.86994 8.28535 5.56994 8.58535Z" fill="#006633"/>
</svg>
