<svg width="24" height="25" viewBox="0 0 24 25" fill="none" xmlns="http://www.w3.org/2000/svg">
<path opacity="0.4" d="M18.3801 13.3057V18.2357C18.3801 19.5057 17.3901 20.8657 16.2001 21.2657L13.0101 22.3257C12.4501 22.5157 11.5401 22.5157 10.9901 22.3257L7.80012 21.2657C6.60012 20.8657 5.62012 19.5057 5.62012 18.2357L5.63012 13.3057L10.0501 16.1857C11.1301 16.8957 12.9101 16.8957 13.9901 16.1857L18.3801 13.3057Z" fill="#006633"/>
<path d="M19.98 6.92563L13.99 2.99563C12.91 2.28563 11.13 2.28563 10.05 2.99563L4.03002 6.92563C2.10002 8.17563 2.10002 11.0056 4.03002 12.2656L5.63002 13.3056L10.05 16.1856C11.13 16.8956 12.91 16.8956 13.99 16.1856L18.38 13.3056L19.75 12.4056V15.4656C19.75 15.8756 20.09 16.2156 20.5 16.2156C20.91 16.2156 21.25 15.8756 21.25 15.4656V10.5456C21.65 9.25563 21.24 7.75563 19.98 6.92563Z" fill="#006633"/>
</svg>
