<svg width="16" height="17" viewBox="0 0 16 17" fill="none" xmlns="http://www.w3.org/2000/svg">
<path d="M4.00065 7.87089V10.5376M12.0007 6.53756V9.20422M11.334 3.20422C12.9665 3.20422 13.8494 3.45406 14.2887 3.64785C14.3472 3.67366 14.3765 3.68656 14.4609 3.76714C14.5115 3.81544 14.6039 3.95715 14.6277 4.02295C14.6673 4.13272 14.6673 4.19272 14.6673 4.31272V11.4783C14.6673 12.0842 14.6673 12.3871 14.5765 12.5428C14.4841 12.7012 14.3949 12.7748 14.2219 12.8357C14.0519 12.8955 13.7086 12.8296 13.0221 12.6977C12.5416 12.6053 11.9717 12.5376 11.334 12.5376C9.33398 12.5376 7.33398 13.8709 4.66732 13.8709C3.03485 13.8709 2.1519 13.621 1.71257 13.4273C1.65407 13.4015 1.62481 13.3885 1.54038 13.308C1.48978 13.2597 1.3974 13.118 1.37363 13.0522C1.33398 12.9424 1.33398 12.8824 1.33398 12.7624L1.33398 5.59679C1.33398 4.99095 1.33398 4.68802 1.42484 4.53232C1.51725 4.37393 1.60638 4.3003 1.77936 4.23943C1.94941 4.17959 2.29267 4.24555 2.9792 4.37746C3.45973 4.46978 4.02964 4.53756 4.66732 4.53756C6.66732 4.53756 8.66732 3.20422 11.334 3.20422ZM9.66732 8.53756C9.66732 9.45803 8.92113 10.2042 8.00065 10.2042C7.08018 10.2042 6.33398 9.45803 6.33398 8.53756C6.33398 7.61708 7.08018 6.87089 8.00065 6.87089C8.92113 6.87089 9.66732 7.61708 9.66732 8.53756Z" stroke="#FAFAFC" stroke-linecap="round" stroke-linejoin="round"/>
</svg>
