<svg width="22" height="20" viewBox="0 0 22 20" fill="none" xmlns="http://www.w3.org/2000/svg">
<g clip-path="url(#clip0_146_19845)">
<path d="M1.59925 2.79999L6.03925 2.87999L8.16925 2.91999C8.52925 2.91999 8.87925 2.92999 9.23925 2.93999C9.44925 2.93999 9.65925 2.93999 9.85925 2.93999C10.6093 2.93999 9.40925 2.96999 9.32925 2.60999C9.49925 3.34999 10.7993 3.21999 11.2993 3.11999C12.0993 2.95999 12.9193 2.60999 13.2693 1.82999C13.5393 1.23999 12.8193 0.83999 12.3593 0.72999C11.8993 0.61999 11.4593 0.62999 10.9993 0.61999C10.1393 0.59999 9.27925 0.58999 8.41925 0.57999L3.16925 0.49999C2.26925 0.48999 1.01925 0.79999 0.499251 1.60999C-0.0207489 2.41999 0.949251 2.78999 1.59925 2.79999Z" fill="black"/>
<path d="M3.65924 11.37L11.3592 11.48C12.6192 11.5 13.8792 11.52 15.1392 11.53C16.0692 11.54 17.2792 11.35 18.0692 11.78C18.7992 12.18 19.9592 11.88 20.6392 11.52C21.0392 11.31 22.0692 10.6 21.4692 10.05C20.5192 9.17999 19.1892 9.19999 17.9692 9.17999C16.5592 9.15999 15.1492 9.13999 13.7392 9.11999L5.26924 9.00999C4.34924 8.99999 3.05924 9.31999 2.52924 10.15C1.99924 10.98 2.98924 11.36 3.65924 11.37Z" fill="black"/>
<path d="M3.42948 19.18C6.35948 19.18 9.27948 19.29 12.2095 19.43C13.0395 19.47 14.2395 19.13 14.7295 18.39C15.2395 17.61 14.2895 17.32 13.6995 17.27C10.7995 17.02 7.87948 16.94 4.96948 16.95C4.08948 16.95 2.88948 17.23 2.37948 18.02C1.86948 18.81 2.80948 19.18 3.43948 19.17L3.42948 19.18Z" fill="black"/>
</g>
<defs>
<clipPath id="clip0_146_19845">
<rect width="21.3" height="18.93" fill="white" transform="translate(0.349609 0.5)"/>
</clipPath>
</defs>
</svg>
