<svg width="92" height="50" viewBox="0 0 92 50" fill="none" xmlns="http://www.w3.org/2000/svg">
<path d="M28.0463 0.864914C30.3901 1.49595 31.562 2.40644 31.562 3.59639V3.73161C31.562 6.68846 30.2188 8.92413 27.5324 10.4386C27.28 10.4386 27.1538 10.4837 27.1538 10.5738C26.4326 10.3935 25.9188 9.99689 25.6123 9.38388C25.6123 8.89708 26.3425 8.33817 27.8029 7.70713C29.0108 7.5629 29.696 6.2828 29.8582 3.86684V3.59639C29.8582 3.07354 29.6058 2.67688 29.101 2.40644C24.81 2.40644 19.2569 5.62472 12.4417 12.0613C9.57498 14.8739 7.45651 17.38 6.08626 19.5796C3.47197 23.474 2.03862 26.8185 1.78621 29.6131C1.78621 32.3535 3.68833 34.2106 7.49256 35.1842C8.35798 35.3645 9.14227 35.4546 9.84542 35.4546H10.9002C15.1912 35.4546 20.3837 33.3362 26.4777 29.0992C26.9104 28.8829 27.1268 28.7476 27.1268 28.6935C27.4693 28.8197 27.6406 28.955 27.6406 29.0992C25.6393 31.2628 22.8267 33.1649 19.2028 34.8056C16.0296 36.0135 13.6046 36.6175 11.9278 36.6175H10.4945L9.57498 36.4823V36.6175C6.79843 36.3291 4.23823 35.3284 1.89439 33.6156C0.8667 32.2273 0.352858 30.9292 0.352858 29.7212C0.352858 26.4218 2.34512 22.0947 6.32966 16.7399C8.0605 14.4322 10.4404 11.917 13.4694 9.19457C16.282 6.59831 18.6709 4.86748 20.6361 4.00206C20.9787 3.64147 22.412 2.90225 24.9362 1.78442C25.1345 1.55004 26.1712 1.24353 28.0463 0.864914ZM32.6438 24.2583C32.9323 24.2583 33.1847 24.4386 33.401 24.7992V25.1237C33.401 25.1958 32.752 25.6646 31.4539 26.53C30.0475 28.1166 29.0379 28.9099 28.4249 28.9099C28.1364 28.9099 27.884 28.4772 27.6676 27.6118L27.7758 27.0709C27.7037 26.6742 27.6676 26.3497 27.6676 26.0973C27.8119 25.7728 27.9561 25.5925 28.1004 25.5564H28.4249C29.0018 25.5564 29.2903 25.5744 29.2903 25.6105V25.935H29.3985C31.1834 24.8172 32.2652 24.2583 32.6438 24.2583ZM36.3489 24.0149H36.8898L37.4306 24.123V24.5558L37.5388 25.2048C37.2504 25.4031 36.4571 27.6388 35.1589 31.9118C34.3656 34.9768 33.969 38.0419 33.969 41.1069V41.9723C33.969 45.2537 34.2935 47.7418 34.9426 49.4366C34.8524 49.7971 34.7442 49.9774 34.618 49.9774H34.5099C33.7526 49.9774 33.2117 47.4172 32.8872 42.2968V40.4578C32.8872 37.3207 33.6444 32.9215 35.1589 27.2602H34.9426C34.2755 27.765 33.7706 28.0174 33.4281 28.0174C32.2742 27.4585 31.6972 26.557 31.6972 25.313C31.8415 24.9885 31.9857 24.8082 32.13 24.7721H32.779C33.2117 25.0245 33.4281 25.313 33.4281 25.6375C33.4281 25.6736 33.392 25.8178 33.3199 26.0702C33.392 26.2145 33.4281 26.3227 33.4281 26.3948H33.7526C34.2935 26.0702 35.1589 25.2769 36.3489 24.0149ZM39.6753 23.9878H40.108C40.8473 23.9878 41.4603 24.7451 41.9471 26.2596C41.9471 27.2692 41.4783 27.9904 40.5407 28.4231C40.3965 28.2428 40.3244 28.0625 40.3244 27.8822C39.6212 28.0986 39.2246 28.2067 39.1344 28.2067C38.7739 28.0805 38.5936 27.9002 38.5936 27.6659H38.4854C36.7545 29.8294 35.0598 33.0387 33.401 37.2936C32.8962 38.8262 32.6438 39.7276 32.6438 39.9981V40.2144L32.752 40.7553C32.4815 40.9717 32.2652 41.0799 32.1029 41.0799C31.5981 40.8996 31.3457 40.6832 31.3457 40.4308C31.3457 39.0786 32.752 35.6169 35.5646 30.0458C37.5118 27.125 38.4854 25.6465 38.4854 25.6105C38.9902 24.6549 39.3869 24.114 39.6753 23.9878ZM38.9181 27.2331C39.4049 26.9447 39.8376 26.8004 40.2162 26.8004L40.7571 26.9086V26.3677C40.7571 26.0252 40.5768 25.7367 40.2162 25.5023C39.3508 26.1514 38.9181 26.7283 38.9181 27.2331ZM47.2748 14.6034C47.6714 14.6034 47.9239 14.7477 48.032 15.0361C47.9599 15.541 46.8781 18.0651 44.7867 22.6086C44.354 23.2576 43.9213 24.2312 43.4886 25.5294L43.7049 25.6375L44.4622 25.5294C44.9129 25.5294 45.2374 25.7097 45.4358 26.0702V26.2866C45.4358 26.4669 44.5704 26.7554 42.8395 27.152C42.3167 29.8204 41.8479 31.1546 41.4332 31.1546H41.2169C41.2169 30.9743 41.0726 30.8661 40.7841 30.83V30.5055C40.7841 30.1269 41.1087 28.8288 41.7577 26.6111C41.6135 26.3767 41.5414 26.1964 41.5414 26.0702C42.2626 25.7637 42.6232 25.1507 42.6232 24.2312C44.5163 20.2828 45.9226 17.0735 46.8421 14.6034H47.2748ZM45.8955 29.9105C46.0217 28.8829 46.3463 27.8371 46.8691 26.7734L46.7609 26.557C46.815 26.2686 46.8872 26.1243 46.9773 26.1243L46.8691 25.908C46.8691 25.7818 47.3018 25.6375 48.1673 25.4753C48.3656 25.1147 48.6901 24.9344 49.1409 24.9344C50.0063 25.6556 50.7635 26.0162 51.4126 26.0162L50.8717 27.4225L50.1144 26.9897C50.1144 27.9994 49.5014 28.7927 48.2754 29.3697C47.8067 29.2254 47.4461 29.0451 47.1937 28.8288C47.1937 29.0271 46.7609 29.3877 45.8955 29.9105ZM61.5272 24.5017H61.9599C62.6991 24.5017 63.2039 24.7901 63.4744 25.3671C63.4744 26.1424 62.2123 26.7554 59.6881 27.2061C59.3997 27.134 59.1473 27.0979 58.9309 27.0979C58.7326 27.0979 58.5523 27.2782 58.39 27.6388C58.7145 27.9273 58.8948 28.0715 58.9309 28.0715H59.6881C60.1749 28.0715 61.9418 27.6388 64.9888 26.7734C65.1331 26.8455 65.2413 26.8816 65.3134 26.8816V27.3143C64.3578 28.1076 62.5909 28.7566 60.0127 29.2615H59.58C58.3359 29.2615 57.4705 28.6845 56.9837 27.5306C56.9837 26.4849 58.4982 25.4753 61.5272 24.5017ZM66.6385 24.4476H66.8549C66.9631 24.4476 67.2876 24.8442 67.8285 25.6375C69.0184 25.2769 69.7396 25.0966 69.992 25.0966C70.3526 25.0966 70.5329 25.313 70.5329 25.7457C70.5149 25.9981 70.0101 26.3587 69.0184 26.8275C69.4511 27.17 69.6675 27.5306 69.6675 27.9093V28.0174C69.6675 28.1256 69.5593 28.2338 69.343 28.342H69.0184L67.6121 27.3684C67.2155 27.4585 66.0255 27.9273 64.0423 28.7747C63.6637 28.5944 63.3752 28.3059 63.1769 27.9093V27.6929C63.3572 27.5126 64.475 27.0438 66.5304 26.2866C66.5304 26.1964 66.3501 25.7637 65.9895 24.9885V24.7721C66.0616 24.5558 66.2779 24.4476 66.6385 24.4476ZM72.399 23.9878H72.8317C73.5709 23.9878 74.1839 24.7451 74.6707 26.2596C74.6707 27.2692 74.2019 27.9904 73.2644 28.4231C73.1202 28.2428 73.048 28.0625 73.048 27.8822C72.3449 28.0986 71.9482 28.2067 71.8581 28.2067C71.4975 28.0805 71.3172 27.9002 71.3172 27.6659H71.209C69.4782 29.8294 67.7834 33.0387 66.1247 37.2936C65.6199 38.8262 65.3675 39.7276 65.3675 39.9981V40.2144L65.4756 40.7553C65.2052 40.9717 64.9888 41.0799 64.8266 41.0799C64.3217 40.8996 64.0693 40.6832 64.0693 40.4308C64.0693 39.0786 65.4756 35.6169 68.2882 30.0458C70.2354 27.125 71.209 25.6465 71.209 25.6105C71.7139 24.6549 72.1105 24.114 72.399 23.9878ZM71.6417 27.2331C72.1285 26.9447 72.5613 26.8004 72.9399 26.8004L73.4808 26.9086V26.3677C73.4808 26.0252 73.3005 25.7367 72.9399 25.5023C72.0745 26.1514 71.6417 26.7283 71.6417 27.2331ZM77.8619 24.5017H78.2947C79.0339 24.5017 79.5387 24.7901 79.8091 25.3671C79.8091 26.1424 78.5471 26.7554 76.0229 27.2061C75.7345 27.134 75.482 27.0979 75.2657 27.0979C75.0674 27.0979 74.8871 27.2782 74.7248 27.6388C75.0493 27.9273 75.2296 28.0715 75.2657 28.0715H76.0229C76.5097 28.0715 78.2766 27.6388 81.3236 26.7734C81.4679 26.8455 81.576 26.8816 81.6482 26.8816V27.3143C80.6926 28.1076 78.9257 28.7566 76.3475 29.2615H75.9147C74.6707 29.2615 73.8053 28.6845 73.3185 27.5306C73.3185 26.4849 74.833 25.4753 77.8619 24.5017ZM85.2721 24.2583C85.5606 24.2583 85.813 24.4386 86.0293 24.7992V25.1237C86.0293 25.1958 85.3803 25.6646 84.0821 26.53C82.6758 28.1166 81.6662 28.9099 81.0532 28.9099C80.7647 28.9099 80.5123 28.4772 80.2959 27.6118L80.4041 27.0709C80.332 26.6742 80.2959 26.3497 80.2959 26.0973C80.4402 25.7728 80.5844 25.5925 80.7286 25.5564H81.0532C81.6301 25.5564 81.9186 25.5744 81.9186 25.6105V25.935H82.0268C83.8117 24.8172 84.8935 24.2583 85.2721 24.2583ZM90.8162 14.6034C91.2128 14.6034 91.4653 14.7477 91.5734 15.0361C91.5013 15.541 90.4195 18.0651 88.3281 22.6086C87.8954 23.2576 87.4627 24.2312 87.03 25.5294L87.2463 25.6375L88.0036 25.5294C88.4543 25.5294 88.7788 25.7097 88.9772 26.0702V26.2866C88.9772 26.4669 88.1118 26.7554 86.3809 27.152C85.8581 29.8204 85.3893 31.1546 84.9746 31.1546H84.7583C84.7583 30.9743 84.614 30.8661 84.3255 30.83V30.5055C84.3255 30.1269 84.6501 28.8288 85.2991 26.6111C85.1549 26.3767 85.0828 26.1964 85.0828 26.0702C85.804 25.7637 86.1646 25.1507 86.1646 24.2312C88.0577 20.2828 89.464 17.0735 90.3835 14.6034H90.8162Z" fill="#CECECE"/>
</svg>
