<svg width="10" height="10" viewBox="0 0 10 10" fill="none" xmlns="http://www.w3.org/2000/svg">
<path d="M6.4138 4.99998L9.48047 1.93331C9.86714 1.54665 9.86714 0.906647 9.48047 0.51998C9.0938 0.133314 8.4538 0.133314 8.06714 0.51998L5.00047 3.58665L1.9338 0.51998C1.54713 0.133314 0.907135 0.133314 0.520469 0.51998C0.133802 0.906647 0.133802 1.54665 0.520469 1.93331L3.58713 4.99998L0.520469 8.06665C0.133802 8.45331 0.133802 9.09331 0.520469 9.47998C0.720469 9.67998 0.973802 9.77331 1.22714 9.77331C1.48047 9.77331 1.7338 9.67998 1.9338 9.47998L5.00047 6.41331L8.06714 9.47998C8.26714 9.67998 8.52047 9.77331 8.7738 9.77331C9.02714 9.77331 9.28047 9.67998 9.48047 9.47998C9.86714 9.09331 9.86714 8.45331 9.48047 8.06665L6.4138 4.99998Z" fill="#6B7588"/>
</svg>
